  0
SECTION
  2
HEADER
  9
$ACADVER
  1
AC1009
  9
$ANGDIR
  70
0
  9
$CECOLOR
  62
256
  9
$CELTYPE
  6
BYLAYER
  9
$EXTMIN
  10
0.0
  20
0.0
  9
$EXTMAX
  10
600.0
  20
480.0
  9
$FILLMODE
  70
1
  9
$MIRRTEXT
  70
0
  0
ENDSEC
  0
SECTION
  2
TABLES
  0
TABLE
  2
LAYER
  70
19
  0
LAYER
  2
Top_Mask
  70
64
  62
3
  6
CONTINUOUS
  0
ENDTAB
  0
ENDSEC
  0
SECTION
  2
ENTITIES
  0
POLYLINE
  8
Top_Mask
  6
CONTINUOUS
  70
1
  0
VERTEX
  8
Top_Mask
  10
25.0
  20
39.0
  42
0
  0
VERTEX
  8
Top_Mask
  10
25.0
  20
441.0
  42
0
  0
VERTEX
  8
Top_Mask
  10
583.0
  20
441.0
  42
0
  0
VERTEX
  8
Top_Mask
  10
583.0
  20
80.0
  42
0
  0
VERTEX
  8
Top_Mask
  10
558.0
  20
80.0
  42
0
  0
VERTEX
  8
Top_Mask
  10
558.0
  20
69.0
  42
0
  0
VERTEX
  8
Top_Mask
  10
564.0
  20
69.0
  42
0
  0
VERTEX
  8
Top_Mask
  10
564.0
  20
39.0
  42
0
  0
VERTEX
  8
Top_Mask
  10
176.0
  20
39.0
  42
0
  0
VERTEX
  8
Top_Mask
  10
176.0
  20
97.0
  42
0
  0
VERTEX
  8
Top_Mask
  10
144.0
  20
97.0
  42
0
  0
VERTEX
  8
Top_Mask
  10
144.0
  20
92.0
  42
0
  0
VERTEX
  8
Top_Mask
  10
58.0
  20
92.0
  42
0
  0
VERTEX
  8
Top_Mask
  10
58.0
  20
64.0
  42
0
  0
VERTEX
  8
Top_Mask
  10
144.0
  20
64.0
  42
0
  0
VERTEX
  8
Top_Mask
  10
144.0
  20
39.0
  42
0
  0
VERTEX
  8
Top_Mask
  10
25.0
  20
39.0
  42
0
  0
SEQEND
  0
POLYLINE
  8
Top_Mask
  6
CONTINUOUS
  70
1
  0
VERTEX
  8
Top_Mask
  10
380.0
  20
122.0
  42
0
  0
VERTEX
  8
Top_Mask
  10
380.0
  20
112.0
  42
0
  0
VERTEX
  8
Top_Mask
  10
369.0
  20
112.0
  42
0
  0
VERTEX
  8
Top_Mask
  10
369.0
  20
122.0
  42
0
  0
VERTEX
  8
Top_Mask
  10
380.0
  20
122.0
  42
0
  0
SEQEND
  0
POLYLINE
  8
Top_Mask
  6
CONTINUOUS
  70
1
  0
VERTEX
  8
Top_Mask
  10
378.0
  20
179.0
  42
0
  0
VERTEX
  8
Top_Mask
  10
378.0
  20
168.0
  42
0
  0
VERTEX
  8
Top_Mask
  10
367.0
  20
168.0
  42
0
  0
VERTEX
  8
Top_Mask
  10
367.0
  20
179.0
  42
0
  0
VERTEX
  8
Top_Mask
  10
378.0
  20
179.0
  42
0
  0
SEQEND
  0
POLYLINE
  8
Top_Mask
  6
CONTINUOUS
  70
1
  0
VERTEX
  8
Top_Mask
  10
82.0
  20
137.0
  42
0
  0
VERTEX
  8
Top_Mask
  10
82.0
  20
147.0
  42
0
  0
VERTEX
  8
Top_Mask
  10
92.0
  20
147.0
  42
0
  0
VERTEX
  8
Top_Mask
  10
92.0
  20
137.0
  42
0
  0
VERTEX
  8
Top_Mask
  10
82.0
  20
137.0
  42
0
  0
SEQEND
  0
POLYLINE
  8
Top_Mask
  6
CONTINUOUS
  70
1
  0
VERTEX
  8
Top_Mask
  10
122.0
  20
127.0
  42
0
  0
VERTEX
  8
Top_Mask
  10
122.0
  20
137.0
  42
0
  0
VERTEX
  8
Top_Mask
  10
132.0
  20
137.0
  42
0
  0
VERTEX
  8
Top_Mask
  10
132.0
  20
127.0
  42
0
  0
VERTEX
  8
Top_Mask
  10
122.0
  20
127.0
  42
0
  0
SEQEND
  0
POLYLINE
  8
Top_Mask
  6
CONTINUOUS
  70
1
  0
VERTEX
  8
Top_Mask
  10
143.0
  20
127.0
  42
0
  0
VERTEX
  8
Top_Mask
  10
143.0
  20
137.0
  42
0
  0
VERTEX
  8
Top_Mask
  10
153.0
  20
137.0
  42
0
  0
VERTEX
  8
Top_Mask
  10
153.0
  20
127.0
  42
0
  0
VERTEX
  8
Top_Mask
  10
143.0
  20
127.0
  42
0
  0
SEQEND
  0
POLYLINE
  8
Top_Mask
  6
CONTINUOUS
  70
1
  0
VERTEX
  8
Top_Mask
  10
158.0
  20
117.0
  42
0
  0
VERTEX
  8
Top_Mask
  10
158.0
  20
127.0
  42
0
  0
VERTEX
  8
Top_Mask
  10
168.0
  20
127.0
  42
0
  0
VERTEX
  8
Top_Mask
  10
168.0
  20
117.0
  42
0
  0
VERTEX
  8
Top_Mask
  10
158.0
  20
117.0
  42
0
  0
SEQEND
  0
POLYLINE
  8
Top_Mask
  6
CONTINUOUS
  70
1
  0
VERTEX
  8
Top_Mask
  10
178.0
  20
127.0
  42
0
  0
VERTEX
  8
Top_Mask
  10
178.0
  20
137.0
  42
0
  0
VERTEX
  8
Top_Mask
  10
189.0
  20
137.0
  42
0
  0
VERTEX
  8
Top_Mask
  10
189.0
  20
147.0
  42
0
  0
VERTEX
  8
Top_Mask
  10
227.0
  20
147.0
  42
0
  0
VERTEX
  8
Top_Mask
  10
227.0
  20
137.0
  42
0
  0
VERTEX
  8
Top_Mask
  10
208.0
  20
137.0
  42
0
  0
VERTEX
  8
Top_Mask
  10
208.0
  20
127.0
  42
0
  0
VERTEX
  8
Top_Mask
  10
178.0
  20
127.0
  42
0
  0
SEQEND
  0
POLYLINE
  8
Top_Mask
  6
CONTINUOUS
  70
1
  0
VERTEX
  8
Top_Mask
  10
195.0
  20
61.0
  42
0
  0
VERTEX
  8
Top_Mask
  10
195.0
  20
89.0
  42
0
  0
VERTEX
  8
Top_Mask
  10
279.0
  20
89.0
  42
0
  0
VERTEX
  8
Top_Mask
  10
279.0
  20
105.0
  42
0
  0
VERTEX
  8
Top_Mask
  10
311.0
  20
105.0
  42
0
  0
VERTEX
  8
Top_Mask
  10
311.0
  20
47.0
  42
0
  0
VERTEX
  8
Top_Mask
  10
253.0
  20
47.0
  42
0
  0
VERTEX
  8
Top_Mask
  10
253.0
  20
61.0
  42
0
  0
VERTEX
  8
Top_Mask
  10
195.0
  20
61.0
  42
0
  0
SEQEND
  0
POLYLINE
  8
Top_Mask
  6
CONTINUOUS
  70
1
  0
VERTEX
  8
Top_Mask
  10
239.0
  20
119.0
  42
0
  0
VERTEX
  8
Top_Mask
  10
239.0
  20
128.0
  42
0
  0
VERTEX
  8
Top_Mask
  10
249.0
  20
128.0
  42
0
  0
VERTEX
  8
Top_Mask
  10
249.0
  20
119.0
  42
0
  0
VERTEX
  8
Top_Mask
  10
239.0
  20
119.0
  42
0
  0
SEQEND
  0
POLYLINE
  8
Top_Mask
  6
CONTINUOUS
  70
1
  0
VERTEX
  8
Top_Mask
  10
259.0
  20
120.0
  42
0
  0
VERTEX
  8
Top_Mask
  10
259.0
  20
130.0
  42
0
  0
VERTEX
  8
Top_Mask
  10
277.0
  20
130.0
  42
0
  0
VERTEX
  8
Top_Mask
  10
277.0
  20
120.0
  42
0
  0
VERTEX
  8
Top_Mask
  10
259.0
  20
120.0
  42
0
  0
SEQEND
  0
POLYLINE
  8
Top_Mask
  6
CONTINUOUS
  70
1
  0
VERTEX
  8
Top_Mask
  10
288.0
  20
121.0
  42
0
  0
VERTEX
  8
Top_Mask
  10
288.0
  20
131.0
  42
0
  0
VERTEX
  8
Top_Mask
  10
298.0
  20
131.0
  42
0
  0
VERTEX
  8
Top_Mask
  10
298.0
  20
121.0
  42
0
  0
VERTEX
  8
Top_Mask
  10
288.0
  20
121.0
  42
0
  0
SEQEND
  0
POLYLINE
  8
Top_Mask
  6
CONTINUOUS
  70
1
  0
VERTEX
  8
Top_Mask
  10
309.0
  20
135.0
  42
0
  0
VERTEX
  8
Top_Mask
  10
309.0
  20
147.0
  42
0
  0
VERTEX
  8
Top_Mask
  10
319.0
  20
147.0
  42
0
  0
VERTEX
  8
Top_Mask
  10
319.0
  20
135.0
  42
0
  0
VERTEX
  8
Top_Mask
  10
309.0
  20
135.0
  42
0
  0
SEQEND
  0
POLYLINE
  8
Top_Mask
  6
CONTINUOUS
  70
1
  0
VERTEX
  8
Top_Mask
  10
338.0
  20
127.0
  42
0
  0
VERTEX
  8
Top_Mask
  10
338.0
  20
137.0
  42
0
  0
VERTEX
  8
Top_Mask
  10
367.0
  20
137.0
  42
0
  0
VERTEX
  8
Top_Mask
  10
367.0
  20
127.0
  42
0
  0
VERTEX
  8
Top_Mask
  10
338.0
  20
127.0
  42
0
  0
SEQEND
  0
POLYLINE
  8
Top_Mask
  6
CONTINUOUS
  70
1
  0
VERTEX
  8
Top_Mask
  10
375.0
  20
88.0
  42
0
  0
VERTEX
  8
Top_Mask
  10
375.0
  20
109.0
  42
0
  0
VERTEX
  8
Top_Mask
  10
385.0
  20
109.0
  42
0
  0
VERTEX
  8
Top_Mask
  10
385.0
  20
88.0
  42
0
  0
VERTEX
  8
Top_Mask
  10
375.0
  20
88.0
  42
0
  0
SEQEND
  0
POLYLINE
  8
Top_Mask
  6
CONTINUOUS
  70
1
  0
VERTEX
  8
Top_Mask
  10
328.0
  20
48.0
  42
0
  0
VERTEX
  8
Top_Mask
  10
328.0
  20
58.0
  42
0
  0
VERTEX
  8
Top_Mask
  10
338.0
  20
58.0
  42
0
  0
VERTEX
  8
Top_Mask
  10
338.0
  20
62.0
  42
0
  0
VERTEX
  8
Top_Mask
  10
387.0
  20
62.0
  42
0
  0
VERTEX
  8
Top_Mask
  10
387.0
  20
52.0
  42
0
  0
VERTEX
  8
Top_Mask
  10
338.0
  20
52.0
  42
0
  0
VERTEX
  8
Top_Mask
  10
338.0
  20
48.0
  42
0
  0
VERTEX
  8
Top_Mask
  10
328.0
  20
48.0
  42
0
  0
SEQEND
  0
POLYLINE
  8
Top_Mask
  6
CONTINUOUS
  70
1
  0
VERTEX
  8
Top_Mask
  10
438.0
  20
73.0
  42
0
  0
VERTEX
  8
Top_Mask
  10
438.0
  20
83.0
  42
0
  0
VERTEX
  8
Top_Mask
  10
448.0
  20
83.0
  42
0
  0
VERTEX
  8
Top_Mask
  10
448.0
  20
73.0
  42
0
  0
VERTEX
  8
Top_Mask
  10
438.0
  20
73.0
  42
0
  0
SEQEND
  0
POLYLINE
  8
Top_Mask
  6
CONTINUOUS
  70
1
  0
VERTEX
  8
Top_Mask
  10
435.0
  20
53.0
  42
0
  0
VERTEX
  8
Top_Mask
  10
435.0
  20
63.0
  42
0
  0
VERTEX
  8
Top_Mask
  10
465.0
  20
63.0
  42
0
  0
VERTEX
  8
Top_Mask
  10
465.0
  20
67.0
  42
0
  0
VERTEX
  8
Top_Mask
  10
485.0
  20
67.0
  42
0
  0
VERTEX
  8
Top_Mask
  10
485.0
  20
57.0
  42
0
  0
VERTEX
  8
Top_Mask
  10
465.0
  20
57.0
  42
0
  0
VERTEX
  8
Top_Mask
  10
465.0
  20
49.0
  42
0
  0
VERTEX
  8
Top_Mask
  10
445.0
  20
49.0
  42
0
  0
VERTEX
  8
Top_Mask
  10
445.0
  20
53.0
  42
0
  0
VERTEX
  8
Top_Mask
  10
435.0
  20
53.0
  42
0
  0
SEQEND
  0
POLYLINE
  8
Top_Mask
  6
CONTINUOUS
  70
1
  0
VERTEX
  8
Top_Mask
  10
88.0
  20
43.0
  42
0
  0
VERTEX
  8
Top_Mask
  10
88.0
  20
57.0
  42
0
  0
VERTEX
  8
Top_Mask
  10
102.0
  20
57.0
  42
0
  0
VERTEX
  8
Top_Mask
  10
102.0
  20
43.0
  42
0
  0
VERTEX
  8
Top_Mask
  10
88.0
  20
43.0
  42
0
  0
SEQEND
  0
POLYLINE
  8
Top_Mask
  6
CONTINUOUS
  70
1
  0
VERTEX
  8
Top_Mask
  10
428.0
  20
138.0
  42
0
  0
VERTEX
  8
Top_Mask
  10
428.0
  20
157.0
  42
0
  0
VERTEX
  8
Top_Mask
  10
438.0
  20
157.0
  42
0
  0
VERTEX
  8
Top_Mask
  10
438.0
  20
138.0
  42
0
  0
VERTEX
  8
Top_Mask
  10
428.0
  20
138.0
  42
0
  0
SEQEND
  0
POLYLINE
  8
Top_Mask
  6
CONTINUOUS
  70
1
  0
VERTEX
  8
Top_Mask
  10
437.0
  20
165.0
  42
0
  0
VERTEX
  8
Top_Mask
  10
437.0
  20
175.0
  42
0
  0
VERTEX
  8
Top_Mask
  10
505.0
  20
175.0
  42
0
  0
VERTEX
  8
Top_Mask
  10
505.0
  20
165.0
  42
0
  0
VERTEX
  8
Top_Mask
  10
437.0
  20
165.0
  42
0
  0
SEQEND
  0
POLYLINE
  8
Top_Mask
  6
CONTINUOUS
  70
1
  0
VERTEX
  8
Top_Mask
  10
460.0
  20
184.0
  42
0
  0
VERTEX
  8
Top_Mask
  10
460.0
  20
194.0
  42
0
  0
VERTEX
  8
Top_Mask
  10
481.0
  20
194.0
  42
0
  0
VERTEX
  8
Top_Mask
  10
481.0
  20
184.0
  42
0
  0
VERTEX
  8
Top_Mask
  10
460.0
  20
184.0
  42
0
  0
SEQEND
  0
POLYLINE
  8
Top_Mask
  6
CONTINUOUS
  70
1
  0
VERTEX
  8
Top_Mask
  10
502.0
  20
183.0
  42
0
  0
VERTEX
  8
Top_Mask
  10
502.0
  20
193.0
  42
0
  0
VERTEX
  8
Top_Mask
  10
512.0
  20
193.0
  42
0
  0
VERTEX
  8
Top_Mask
  10
512.0
  20
183.0
  42
0
  0
VERTEX
  8
Top_Mask
  10
502.0
  20
183.0
  42
0
  0
SEQEND
  0
POLYLINE
  8
Top_Mask
  6
CONTINUOUS
  70
1
  0
VERTEX
  8
Top_Mask
  10
552.0
  20
162.0
  42
0
  0
VERTEX
  8
Top_Mask
  10
552.0
  20
175.0
  42
0
  0
VERTEX
  8
Top_Mask
  10
573.0
  20
175.0
  42
0
  0
VERTEX
  8
Top_Mask
  10
573.0
  20
162.0
  42
0
  0
VERTEX
  8
Top_Mask
  10
552.0
  20
162.0
  42
0
  0
SEQEND
  0
POLYLINE
  8
Top_Mask
  6
CONTINUOUS
  70
1
  0
VERTEX
  8
Top_Mask
  10
400.0
  20
176.0
  42
0
  0
VERTEX
  8
Top_Mask
  10
400.0
  20
186.0
  42
0
  0
VERTEX
  8
Top_Mask
  10
412.0
  20
186.0
  42
0
  0
VERTEX
  8
Top_Mask
  10
412.0
  20
176.0
  42
0
  0
VERTEX
  8
Top_Mask
  10
400.0
  20
176.0
  42
0
  0
SEQEND
  0
POLYLINE
  8
Top_Mask
  6
CONTINUOUS
  70
1
  0
VERTEX
  8
Top_Mask
  10
407.0
  20
207.0
  42
0
  0
VERTEX
  8
Top_Mask
  10
407.0
  20
217.0
  42
0
  0
VERTEX
  8
Top_Mask
  10
417.0
  20
217.0
  42
0
  0
VERTEX
  8
Top_Mask
  10
417.0
  20
207.0
  42
0
  0
VERTEX
  8
Top_Mask
  10
407.0
  20
207.0
  42
0
  0
SEQEND
  0
POLYLINE
  8
Top_Mask
  6
CONTINUOUS
  70
1
  0
VERTEX
  8
Top_Mask
  10
325.0
  20
179.0
  42
0
  0
VERTEX
  8
Top_Mask
  10
325.0
  20
168.0
  42
0
  0
VERTEX
  8
Top_Mask
  10
313.0
  20
168.0
  42
0
  0
VERTEX
  8
Top_Mask
  10
313.0
  20
179.0
  42
0
  0
VERTEX
  8
Top_Mask
  10
325.0
  20
179.0
  42
0
  0
SEQEND
  0
POLYLINE
  8
Top_Mask
  6
CONTINUOUS
  70
1
  0
VERTEX
  8
Top_Mask
  10
203.0
  20
162.0
  42
0
  0
VERTEX
  8
Top_Mask
  10
203.0
  20
181.0
  42
0
  0
VERTEX
  8
Top_Mask
  10
213.0
  20
181.0
  42
0
  0
VERTEX
  8
Top_Mask
  10
213.0
  20
162.0
  42
0
  0
VERTEX
  8
Top_Mask
  10
203.0
  20
162.0
  42
0
  0
SEQEND
  0
POLYLINE
  8
Top_Mask
  6
CONTINUOUS
  70
1
  0
VERTEX
  8
Top_Mask
  10
175.0
  20
170.0
  42
0
  0
VERTEX
  8
Top_Mask
  10
175.0
  20
180.0
  42
0
  0
VERTEX
  8
Top_Mask
  10
195.0
  20
180.0
  42
0
  0
VERTEX
  8
Top_Mask
  10
195.0
  20
170.0
  42
0
  0
VERTEX
  8
Top_Mask
  10
175.0
  20
170.0
  42
0
  0
SEQEND
  0
POLYLINE
  8
Top_Mask
  6
CONTINUOUS
  70
1
  0
VERTEX
  8
Top_Mask
  10
85.0
  20
157.0
  42
0
  0
VERTEX
  8
Top_Mask
  10
85.0
  20
167.0
  42
0
  0
VERTEX
  8
Top_Mask
  10
95.0
  20
167.0
  42
0
  0
VERTEX
  8
Top_Mask
  10
95.0
  20
157.0
  42
0
  0
VERTEX
  8
Top_Mask
  10
85.0
  20
157.0
  42
0
  0
SEQEND
  0
POLYLINE
  8
Top_Mask
  6
CONTINUOUS
  70
1
  0
VERTEX
  8
Top_Mask
  10
56.0
  20
173.0
  42
0
  0
VERTEX
  8
Top_Mask
  10
56.0
  20
183.0
  42
0
  0
VERTEX
  8
Top_Mask
  10
66.0
  20
183.0
  42
0
  0
VERTEX
  8
Top_Mask
  10
66.0
  20
173.0
  42
0
  0
VERTEX
  8
Top_Mask
  10
56.0
  20
173.0
  42
0
  0
SEQEND
  0
POLYLINE
  8
Top_Mask
  6
CONTINUOUS
  70
1
  0
VERTEX
  8
Top_Mask
  10
52.0
  20
190.0
  42
0
  0
VERTEX
  8
Top_Mask
  10
52.0
  20
200.0
  42
0
  0
VERTEX
  8
Top_Mask
  10
62.0
  20
200.0
  42
0
  0
VERTEX
  8
Top_Mask
  10
62.0
  20
190.0
  42
0
  0
VERTEX
  8
Top_Mask
  10
52.0
  20
190.0
  42
0
  0
SEQEND
  0
POLYLINE
  8
Top_Mask
  6
CONTINUOUS
  70
1
  0
VERTEX
  8
Top_Mask
  10
73.0
  20
190.0
  42
0
  0
VERTEX
  8
Top_Mask
  10
73.0
  20
200.0
  42
0
  0
VERTEX
  8
Top_Mask
  10
83.0
  20
200.0
  42
0
  0
VERTEX
  8
Top_Mask
  10
83.0
  20
190.0
  42
0
  0
VERTEX
  8
Top_Mask
  10
73.0
  20
190.0
  42
0
  0
SEQEND
  0
POLYLINE
  8
Top_Mask
  6
CONTINUOUS
  70
1
  0
VERTEX
  8
Top_Mask
  10
90.0
  20
192.0
  42
0
  0
VERTEX
  8
Top_Mask
  10
90.0
  20
205.0
  42
0
  0
VERTEX
  8
Top_Mask
  10
110.0
  20
205.0
  42
0
  0
VERTEX
  8
Top_Mask
  10
110.0
  20
192.0
  42
0
  0
VERTEX
  8
Top_Mask
  10
90.0
  20
192.0
  42
0
  0
SEQEND
  0
POLYLINE
  8
Top_Mask
  6
CONTINUOUS
  70
1
  0
VERTEX
  8
Top_Mask
  10
130.0
  20
195.0
  42
0
  0
VERTEX
  8
Top_Mask
  10
130.0
  20
205.0
  42
0
  0
VERTEX
  8
Top_Mask
  10
150.0
  20
205.0
  42
0
  0
VERTEX
  8
Top_Mask
  10
150.0
  20
195.0
  42
0
  0
VERTEX
  8
Top_Mask
  10
130.0
  20
195.0
  42
0
  0
SEQEND
  0
POLYLINE
  8
Top_Mask
  6
CONTINUOUS
  70
1
  0
VERTEX
  8
Top_Mask
  10
163.0
  20
195.0
  42
0
  0
VERTEX
  8
Top_Mask
  10
163.0
  20
205.0
  42
0
  0
VERTEX
  8
Top_Mask
  10
173.0
  20
205.0
  42
0
  0
VERTEX
  8
Top_Mask
  10
173.0
  20
195.0
  42
0
  0
VERTEX
  8
Top_Mask
  10
163.0
  20
195.0
  42
0
  0
SEQEND
  0
POLYLINE
  8
Top_Mask
  6
CONTINUOUS
  70
1
  0
VERTEX
  8
Top_Mask
  10
175.0
  20
212.0
  42
0
  0
VERTEX
  8
Top_Mask
  10
175.0
  20
222.0
  42
0
  0
VERTEX
  8
Top_Mask
  10
185.0
  20
222.0
  42
0
  0
VERTEX
  8
Top_Mask
  10
185.0
  20
212.0
  42
0
  0
VERTEX
  8
Top_Mask
  10
175.0
  20
212.0
  42
0
  0
SEQEND
  0
POLYLINE
  8
Top_Mask
  6
CONTINUOUS
  70
1
  0
VERTEX
  8
Top_Mask
  10
141.0
  20
271.0
  42
0
  0
VERTEX
  8
Top_Mask
  10
141.0
  20
339.0
  42
0
  0
VERTEX
  8
Top_Mask
  10
169.0
  20
339.0
  42
0
  0
VERTEX
  8
Top_Mask
  10
169.0
  20
271.0
  42
0
  0
VERTEX
  8
Top_Mask
  10
141.0
  20
271.0
  42
0
  0
SEQEND
  0
POLYLINE
  8
Top_Mask
  6
CONTINUOUS
  70
1
  0
VERTEX
  8
Top_Mask
  10
202.0
  20
303.0
  42
0
  0
VERTEX
  8
Top_Mask
  10
202.0
  20
313.0
  42
0
  0
VERTEX
  8
Top_Mask
  10
212.0
  20
313.0
  42
0
  0
VERTEX
  8
Top_Mask
  10
212.0
  20
303.0
  42
0
  0
VERTEX
  8
Top_Mask
  10
202.0
  20
303.0
  42
0
  0
SEQEND
  0
POLYLINE
  8
Top_Mask
  6
CONTINUOUS
  70
1
  0
VERTEX
  8
Top_Mask
  10
223.0
  20
260.0
  42
0
  0
VERTEX
  8
Top_Mask
  10
223.0
  20
270.0
  42
0
  0
VERTEX
  8
Top_Mask
  10
235.0
  20
270.0
  42
0
  0
VERTEX
  8
Top_Mask
  10
235.0
  20
280.0
  42
0
  0
VERTEX
  8
Top_Mask
  10
248.0
  20
280.0
  42
0
  0
VERTEX
  8
Top_Mask
  10
248.0
  20
260.0
  42
0
  0
VERTEX
  8
Top_Mask
  10
223.0
  20
260.0
  42
0
  0
SEQEND
  0
POLYLINE
  8
Top_Mask
  6
CONTINUOUS
  70
1
  0
VERTEX
  8
Top_Mask
  10
247.0
  20
303.0
  42
0
  0
VERTEX
  8
Top_Mask
  10
247.0
  20
313.0
  42
0
  0
VERTEX
  8
Top_Mask
  10
257.0
  20
313.0
  42
0
  0
VERTEX
  8
Top_Mask
  10
257.0
  20
303.0
  42
0
  0
VERTEX
  8
Top_Mask
  10
247.0
  20
303.0
  42
0
  0
SEQEND
  0
POLYLINE
  8
Top_Mask
  6
CONTINUOUS
  70
1
  0
VERTEX
  8
Top_Mask
  10
275.0
  20
303.0
  42
0
  0
VERTEX
  8
Top_Mask
  10
275.0
  20
313.0
  42
0
  0
VERTEX
  8
Top_Mask
  10
298.0
  20
313.0
  42
0
  0
VERTEX
  8
Top_Mask
  10
298.0
  20
303.0
  42
0
  0
VERTEX
  8
Top_Mask
  10
275.0
  20
303.0
  42
0
  0
SEQEND
  0
POLYLINE
  8
Top_Mask
  6
CONTINUOUS
  70
1
  0
VERTEX
  8
Top_Mask
  10
309.0
  20
308.0
  42
0
  0
VERTEX
  8
Top_Mask
  10
309.0
  20
318.0
  42
0
  0
VERTEX
  8
Top_Mask
  10
319.0
  20
318.0
  42
0
  0
VERTEX
  8
Top_Mask
  10
319.0
  20
308.0
  42
0
  0
VERTEX
  8
Top_Mask
  10
309.0
  20
308.0
  42
0
  0
SEQEND
  0
POLYLINE
  8
Top_Mask
  6
CONTINUOUS
  70
1
  0
VERTEX
  8
Top_Mask
  10
338.0
  20
262.0
  42
0
  0
VERTEX
  8
Top_Mask
  10
338.0
  20
272.0
  42
0
  0
VERTEX
  8
Top_Mask
  10
348.0
  20
272.0
  42
0
  0
VERTEX
  8
Top_Mask
  10
348.0
  20
262.0
  42
0
  0
VERTEX
  8
Top_Mask
  10
338.0
  20
262.0
  42
0
  0
SEQEND
  0
POLYLINE
  8
Top_Mask
  6
CONTINUOUS
  70
1
  0
VERTEX
  8
Top_Mask
  10
378.0
  20
347.0
  42
0
  0
VERTEX
  8
Top_Mask
  10
378.0
  20
327.0
  42
0
  0
VERTEX
  8
Top_Mask
  10
368.0
  20
327.0
  42
0
  0
VERTEX
  8
Top_Mask
  10
368.0
  20
315.0
  42
0
  0
VERTEX
  8
Top_Mask
  10
358.0
  20
315.0
  42
0
  0
VERTEX
  8
Top_Mask
  10
358.0
  20
347.0
  42
0
  0
VERTEX
  8
Top_Mask
  10
378.0
  20
347.0
  42
0
  0
SEQEND
  0
POLYLINE
  8
Top_Mask
  6
CONTINUOUS
  70
1
  0
VERTEX
  8
Top_Mask
  10
379.0
  20
313.0
  42
0
  0
VERTEX
  8
Top_Mask
  10
379.0
  20
325.0
  42
0
  0
VERTEX
  8
Top_Mask
  10
413.0
  20
325.0
  42
0
  0
VERTEX
  8
Top_Mask
  10
413.0
  20
364.0
  42
0
  0
VERTEX
  8
Top_Mask
  10
441.0
  20
364.0
  42
0
  0
VERTEX
  8
Top_Mask
  10
441.0
  20
329.0
  42
0
  0
VERTEX
  8
Top_Mask
  10
502.0
  20
329.0
  42
0
  0
VERTEX
  8
Top_Mask
  10
502.0
  20
271.0
  42
0
  0
VERTEX
  8
Top_Mask
  10
470.0
  20
271.0
  42
0
  0
VERTEX
  8
Top_Mask
  10
470.0
  20
296.0
  42
0
  0
VERTEX
  8
Top_Mask
  10
413.0
  20
296.0
  42
0
  0
VERTEX
  8
Top_Mask
  10
413.0
  20
313.0
  42
0
  0
VERTEX
  8
Top_Mask
  10
379.0
  20
313.0
  42
0
  0
SEQEND
  0
POLYLINE
  8
Top_Mask
  6
CONTINUOUS
  70
1
  0
VERTEX
  8
Top_Mask
  10
223.0
  20
283.0
  42
0
  0
VERTEX
  8
Top_Mask
  10
223.0
  20
297.0
  42
0
  0
VERTEX
  8
Top_Mask
  10
235.0
  20
297.0
  42
0
  0
VERTEX
  8
Top_Mask
  10
235.0
  20
283.0
  42
0
  0
VERTEX
  8
Top_Mask
  10
223.0
  20
283.0
  42
0
  0
SEQEND
  0
POLYLINE
  8
Top_Mask
  6
CONTINUOUS
  70
1
  0
VERTEX
  8
Top_Mask
  10
433.0
  20
250.0
  42
0
  0
VERTEX
  8
Top_Mask
  10
433.0
  20
255.0
  42
0
  0
VERTEX
  8
Top_Mask
  10
412.0
  20
255.0
  42
0
  0
VERTEX
  8
Top_Mask
  10
412.0
  20
265.0
  42
0
  0
VERTEX
  8
Top_Mask
  10
432.0
  20
265.0
  42
0
  0
VERTEX
  8
Top_Mask
  10
432.0
  20
260.0
  42
0
  0
VERTEX
  8
Top_Mask
  10
470.0
  20
260.0
  42
0
  0
VERTEX
  8
Top_Mask
  10
470.0
  20
250.0
  42
0
  0
VERTEX
  8
Top_Mask
  10
433.0
  20
250.0
  42
0
  0
SEQEND
  0
POLYLINE
  8
Top_Mask
  6
CONTINUOUS
  70
1
  0
VERTEX
  8
Top_Mask
  10
483.0
  20
250.0
  42
0
  0
VERTEX
  8
Top_Mask
  10
483.0
  20
260.0
  42
0
  0
VERTEX
  8
Top_Mask
  10
495.0
  20
260.0
  42
0
  0
VERTEX
  8
Top_Mask
  10
495.0
  20
250.0
  42
0
  0
VERTEX
  8
Top_Mask
  10
483.0
  20
250.0
  42
0
  0
SEQEND
  0
POLYLINE
  8
Top_Mask
  6
CONTINUOUS
  70
1
  0
VERTEX
  8
Top_Mask
  10
508.0
  20
310.0
  42
0
  0
VERTEX
  8
Top_Mask
  10
508.0
  20
322.0
  42
0
  0
VERTEX
  8
Top_Mask
  10
518.0
  20
322.0
  42
0
  0
VERTEX
  8
Top_Mask
  10
518.0
  20
310.0
  42
0
  0
VERTEX
  8
Top_Mask
  10
508.0
  20
310.0
  42
0
  0
SEQEND
  0
POLYLINE
  8
Top_Mask
  6
CONTINUOUS
  70
1
  0
VERTEX
  8
Top_Mask
  10
545.0
  20
358.0
  42
0
  0
VERTEX
  8
Top_Mask
  10
545.0
  20
372.0
  42
0
  0
VERTEX
  8
Top_Mask
  10
557.0
  20
372.0
  42
0
  0
VERTEX
  8
Top_Mask
  10
557.0
  20
358.0
  42
0
  0
VERTEX
  8
Top_Mask
  10
545.0
  20
358.0
  42
0
  0
SEQEND
  0
POLYLINE
  8
Top_Mask
  6
CONTINUOUS
  70
1
  0
VERTEX
  8
Top_Mask
  10
458.0
  20
352.0
  42
0
  0
VERTEX
  8
Top_Mask
  10
458.0
  20
362.0
  42
0
  0
VERTEX
  8
Top_Mask
  10
503.0
  20
362.0
  42
0
  0
VERTEX
  8
Top_Mask
  10
503.0
  20
352.0
  42
0
  0
VERTEX
  8
Top_Mask
  10
458.0
  20
352.0
  42
0
  0
SEQEND
  0
POLYLINE
  8
Top_Mask
  6
CONTINUOUS
  70
1
  0
VERTEX
  8
Top_Mask
  10
553.0
  20
390.0
  42
0
  0
VERTEX
  8
Top_Mask
  10
553.0
  20
410.0
  42
0
  0
VERTEX
  8
Top_Mask
  10
563.0
  20
410.0
  42
0
  0
VERTEX
  8
Top_Mask
  10
563.0
  20
390.0
  42
0
  0
VERTEX
  8
Top_Mask
  10
553.0
  20
390.0
  42
0
  0
SEQEND
  0
POLYLINE
  8
Top_Mask
  6
CONTINUOUS
  70
1
  0
VERTEX
  8
Top_Mask
  10
507.0
  20
389.0
  42
0
  0
VERTEX
  8
Top_Mask
  10
507.0
  20
409.0
  42
0
  0
VERTEX
  8
Top_Mask
  10
537.0
  20
409.0
  42
0
  0
VERTEX
  8
Top_Mask
  10
537.0
  20
399.0
  42
0
  0
VERTEX
  8
Top_Mask
  10
517.0
  20
399.0
  42
0
  0
VERTEX
  8
Top_Mask
  10
517.0
  20
389.0
  42
0
  0
VERTEX
  8
Top_Mask
  10
507.0
  20
389.0
  42
0
  0
SEQEND
  0
POLYLINE
  8
Top_Mask
  6
CONTINUOUS
  70
1
  0
VERTEX
  8
Top_Mask
  10
392.0
  20
387.0
  42
0
  0
VERTEX
  8
Top_Mask
  10
392.0
  20
397.0
  42
0
  0
VERTEX
  8
Top_Mask
  10
402.0
  20
397.0
  42
0
  0
VERTEX
  8
Top_Mask
  10
402.0
  20
387.0
  42
0
  0
VERTEX
  8
Top_Mask
  10
392.0
  20
387.0
  42
0
  0
SEQEND
  0
POLYLINE
  8
Top_Mask
  6
CONTINUOUS
  70
1
  0
VERTEX
  8
Top_Mask
  10
377.0
  20
358.0
  42
0
  0
VERTEX
  8
Top_Mask
  10
377.0
  20
368.0
  42
0
  0
VERTEX
  8
Top_Mask
  10
387.0
  20
368.0
  42
0
  0
VERTEX
  8
Top_Mask
  10
387.0
  20
358.0
  42
0
  0
VERTEX
  8
Top_Mask
  10
377.0
  20
358.0
  42
0
  0
SEQEND
  0
POLYLINE
  8
Top_Mask
  6
CONTINUOUS
  70
1
  0
VERTEX
  8
Top_Mask
  10
357.0
  20
358.0
  42
0
  0
VERTEX
  8
Top_Mask
  10
357.0
  20
368.0
  42
0
  0
VERTEX
  8
Top_Mask
  10
368.0
  20
368.0
  42
0
  0
VERTEX
  8
Top_Mask
  10
368.0
  20
358.0
  42
0
  0
VERTEX
  8
Top_Mask
  10
357.0
  20
358.0
  42
0
  0
SEQEND
  0
POLYLINE
  8
Top_Mask
  6
CONTINUOUS
  70
1
  0
VERTEX
  8
Top_Mask
  10
319.0
  20
357.0
  42
0
  0
VERTEX
  8
Top_Mask
  10
319.0
  20
347.0
  42
0
  0
VERTEX
  8
Top_Mask
  10
307.0
  20
347.0
  42
0
  0
VERTEX
  8
Top_Mask
  10
307.0
  20
357.0
  42
0
  0
VERTEX
  8
Top_Mask
  10
319.0
  20
357.0
  42
0
  0
SEQEND
  0
POLYLINE
  8
Top_Mask
  6
CONTINUOUS
  70
1
  0
VERTEX
  8
Top_Mask
  10
286.0
  20
342.0
  42
0
  0
VERTEX
  8
Top_Mask
  10
286.0
  20
352.0
  42
0
  0
VERTEX
  8
Top_Mask
  10
298.0
  20
352.0
  42
0
  0
VERTEX
  8
Top_Mask
  10
298.0
  20
342.0
  42
0
  0
VERTEX
  8
Top_Mask
  10
286.0
  20
342.0
  42
0
  0
SEQEND
  0
POLYLINE
  8
Top_Mask
  6
CONTINUOUS
  70
1
  0
VERTEX
  8
Top_Mask
  10
240.0
  20
343.0
  42
0
  0
VERTEX
  8
Top_Mask
  10
240.0
  20
353.0
  42
0
  0
VERTEX
  8
Top_Mask
  10
250.0
  20
353.0
  42
0
  0
VERTEX
  8
Top_Mask
  10
250.0
  20
343.0
  42
0
  0
VERTEX
  8
Top_Mask
  10
240.0
  20
343.0
  42
0
  0
SEQEND
  0
POLYLINE
  8
Top_Mask
  6
CONTINUOUS
  70
1
  0
VERTEX
  8
Top_Mask
  10
177.0
  20
337.0
  42
0
  0
VERTEX
  8
Top_Mask
  10
177.0
  20
347.0
  42
0
  0
VERTEX
  8
Top_Mask
  10
187.0
  20
347.0
  42
0
  0
VERTEX
  8
Top_Mask
  10
187.0
  20
337.0
  42
0
  0
VERTEX
  8
Top_Mask
  10
177.0
  20
337.0
  42
0
  0
SEQEND
  0
POLYLINE
  8
Top_Mask
  6
CONTINUOUS
  70
1
  0
VERTEX
  8
Top_Mask
  10
177.0
  20
353.0
  42
0
  0
VERTEX
  8
Top_Mask
  10
177.0
  20
363.0
  42
0
  0
VERTEX
  8
Top_Mask
  10
187.0
  20
363.0
  42
0
  0
VERTEX
  8
Top_Mask
  10
187.0
  20
353.0
  42
0
  0
VERTEX
  8
Top_Mask
  10
177.0
  20
353.0
  42
0
  0
SEQEND
  0
POLYLINE
  8
Top_Mask
  6
CONTINUOUS
  70
1
  0
VERTEX
  8
Top_Mask
  10
43.0
  20
327.0
  42
0
  0
VERTEX
  8
Top_Mask
  10
43.0
  20
307.0
  42
0
  0
VERTEX
  8
Top_Mask
  10
33.0
  20
307.0
  42
0
  0
VERTEX
  8
Top_Mask
  10
33.0
  20
327.0
  42
0
  0
VERTEX
  8
Top_Mask
  10
43.0
  20
327.0
  42
0
  0
SEQEND
  0
POLYLINE
  8
Top_Mask
  6
CONTINUOUS
  70
1
  0
VERTEX
  8
Top_Mask
  10
41.0
  20
333.0
  42
0
  0
VERTEX
  8
Top_Mask
  10
41.0
  20
358.0
  42
0
  0
VERTEX
  8
Top_Mask
  10
51.0
  20
358.0
  42
0
  0
VERTEX
  8
Top_Mask
  10
51.0
  20
333.0
  42
0
  0
VERTEX
  8
Top_Mask
  10
41.0
  20
333.0
  42
0
  0
SEQEND
  0
POLYLINE
  8
Top_Mask
  6
CONTINUOUS
  70
1
  0
VERTEX
  8
Top_Mask
  10
37.0
  20
392.0
  42
0
  0
VERTEX
  8
Top_Mask
  10
37.0
  20
408.0
  42
0
  0
VERTEX
  8
Top_Mask
  10
47.0
  20
408.0
  42
0
  0
VERTEX
  8
Top_Mask
  10
47.0
  20
392.0
  42
0
  0
VERTEX
  8
Top_Mask
  10
37.0
  20
392.0
  42
0
  0
SEQEND
  0
POLYLINE
  8
Top_Mask
  6
CONTINUOUS
  70
1
  0
VERTEX
  8
Top_Mask
  10
85.0
  20
398.0
  42
0
  0
VERTEX
  8
Top_Mask
  10
85.0
  20
388.0
  42
0
  0
VERTEX
  8
Top_Mask
  10
63.0
  20
388.0
  42
0
  0
VERTEX
  8
Top_Mask
  10
63.0
  20
408.0
  42
0
  0
VERTEX
  8
Top_Mask
  10
73.0
  20
408.0
  42
0
  0
VERTEX
  8
Top_Mask
  10
73.0
  20
398.0
  42
0
  0
VERTEX
  8
Top_Mask
  10
85.0
  20
398.0
  42
0
  0
SEQEND
  0
POLYLINE
  8
Top_Mask
  6
CONTINUOUS
  70
1
  0
VERTEX
  8
Top_Mask
  10
80.0
  20
403.0
  42
0
  0
VERTEX
  8
Top_Mask
  10
80.0
  20
413.0
  42
0
  0
VERTEX
  8
Top_Mask
  10
90.0
  20
413.0
  42
0
  0
VERTEX
  8
Top_Mask
  10
90.0
  20
403.0
  42
0
  0
VERTEX
  8
Top_Mask
  10
80.0
  20
403.0
  42
0
  0
SEQEND
  0
POLYLINE
  8
Top_Mask
  6
CONTINUOUS
  70
1
  0
VERTEX
  8
Top_Mask
  10
478.0
  20
363.0
  42
0
  0
VERTEX
  8
Top_Mask
  10
478.0
  20
377.0
  42
0
  0
VERTEX
  8
Top_Mask
  10
492.0
  20
377.0
  42
0
  0
VERTEX
  8
Top_Mask
  10
492.0
  20
363.0
  42
0
  0
VERTEX
  8
Top_Mask
  10
478.0
  20
363.0
  42
0
  0
SEQEND
  0
POLYLINE
  8
Top_Mask
  6
CONTINUOUS
  70
1
  0
VERTEX
  8
Top_Mask
  10
73.0
  20
324.0
  42
0
  0
VERTEX
  8
Top_Mask
  10
73.0
  20
356.0
  42
0
  0
VERTEX
  8
Top_Mask
  10
131.0
  20
356.0
  42
0
  0
VERTEX
  8
Top_Mask
  10
131.0
  20
324.0
  42
0
  0
VERTEX
  8
Top_Mask
  10
73.0
  20
324.0
  42
0
  0
SEQEND
  0
POLYLINE
  8
Top_Mask
  6
CONTINUOUS
  70
1
  0
VERTEX
  8
Top_Mask
  10
505.0
  20
147.0
  42
0
  0
VERTEX
  8
Top_Mask
  10
505.0
  20
157.0
  42
0
  0
VERTEX
  8
Top_Mask
  10
515.0
  20
157.0
  42
0
  0
VERTEX
  8
Top_Mask
  10
515.0
  20
147.0
  42
0
  0
VERTEX
  8
Top_Mask
  10
505.0
  20
147.0
  42
0
  0
SEQEND
  0
POLYLINE
  8
Top_Mask
  6
CONTINUOUS
  70
1
  0
VERTEX
  8
Top_Mask
  10
515.0
  20
58.0
  42
0
  0
VERTEX
  8
Top_Mask
  10
515.0
  20
69.0
  42
0
  0
VERTEX
  8
Top_Mask
  10
526.0
  20
69.0
  42
0
  0
VERTEX
  8
Top_Mask
  10
526.0
  20
58.0
  42
0
  0
VERTEX
  8
Top_Mask
  10
515.0
  20
58.0
  42
0
  0
SEQEND
  0
POLYLINE
  8
Top_Mask
  6
CONTINUOUS
  70
1
  0
VERTEX
  8
Top_Mask
  10
523.0
  20
107.0
  42
0
  0
VERTEX
  8
Top_Mask
  10
523.0
  20
119.0
  42
0
  0
VERTEX
  8
Top_Mask
  10
535.0
  20
119.0
  42
0
  0
VERTEX
  8
Top_Mask
  10
535.0
  20
107.0
  42
0
  0
VERTEX
  8
Top_Mask
  10
523.0
  20
107.0
  42
0
  0
SEQEND
  0
POLYLINE
  8
Top_Mask
  6
CONTINUOUS
  70
1
  0
VERTEX
  8
Top_Mask
  10
42.0
  20
113.0
  42
0
  0
VERTEX
  8
Top_Mask
  10
42.0
  20
123.0
  42
0
  0
VERTEX
  8
Top_Mask
  10
52.0
  20
123.0
  42
0
  0
VERTEX
  8
Top_Mask
  10
52.0
  20
113.0
  42
0
  0
VERTEX
  8
Top_Mask
  10
42.0
  20
113.0
  42
0
  0
SEQEND
  0
POLYLINE
  8
Top_Mask
  6
CONTINUOUS
  70
1
  0
VERTEX
  8
Top_Mask
  10
126.0
  20
428.0
  42
0
  0
VERTEX
  8
Top_Mask
  10
126.0
  20
438.0
  42
0
  0
VERTEX
  8
Top_Mask
  10
136.0
  20
438.0
  42
0
  0
VERTEX
  8
Top_Mask
  10
136.0
  20
428.0
  42
0
  0
VERTEX
  8
Top_Mask
  10
126.0
  20
428.0
  42
0
  0
SEQEND
  0
POLYLINE
  8
Top_Mask
  6
CONTINUOUS
  70
1
  0
VERTEX
  8
Top_Mask
  10
205.0
  20
428.0
  42
0
  0
VERTEX
  8
Top_Mask
  10
205.0
  20
438.0
  42
0
  0
VERTEX
  8
Top_Mask
  10
215.0
  20
438.0
  42
0
  0
VERTEX
  8
Top_Mask
  10
215.0
  20
428.0
  42
0
  0
VERTEX
  8
Top_Mask
  10
205.0
  20
428.0
  42
0
  0
SEQEND
  0
POLYLINE
  8
Top_Mask
  6
CONTINUOUS
  70
1
  0
VERTEX
  8
Top_Mask
  10
407.0
  20
407.0
  42
0
  0
VERTEX
  8
Top_Mask
  10
407.0
  20
417.0
  42
0
  0
VERTEX
  8
Top_Mask
  10
417.0
  20
417.0
  42
0
  0
VERTEX
  8
Top_Mask
  10
417.0
  20
407.0
  42
0
  0
VERTEX
  8
Top_Mask
  10
407.0
  20
407.0
  42
0
  0
SEQEND
  0
POLYLINE
  8
Top_Mask
  6
CONTINUOUS
  70
1
  0
VERTEX
  8
Top_Mask
  10
190.0
  20
275.0
  42
0
  0
VERTEX
  8
Top_Mask
  10
190.0
  20
285.0
  42
0
  0
VERTEX
  8
Top_Mask
  10
202.0
  20
285.0
  42
0
  0
VERTEX
  8
Top_Mask
  10
202.0
  20
275.0
  42
0
  0
VERTEX
  8
Top_Mask
  10
190.0
  20
275.0
  42
0
  0
SEQEND
  0
POLYLINE
  8
Top_Mask
  6
CONTINUOUS
  70
1
  0
VERTEX
  8
Top_Mask
  10
515.0
  20
270.0
  42
0
  0
VERTEX
  8
Top_Mask
  10
515.0
  20
280.0
  42
0
  0
VERTEX
  8
Top_Mask
  10
552.0
  20
280.0
  42
0
  0
VERTEX
  8
Top_Mask
  10
552.0
  20
270.0
  42
0
  0
VERTEX
  8
Top_Mask
  10
515.0
  20
270.0
  42
0
  0
SEQEND
  0
POLYLINE
  8
Top_Mask
  6
CONTINUOUS
  70
1
  0
VERTEX
  8
Top_Mask
  10
0.0
  20
0.0
  42
0
  0
VERTEX
  8
Top_Mask
  10
0.0
  20
20.0
  42
0
  0
VERTEX
  8
Top_Mask
  10
2.0
  20
20.0
  42
0
  0
VERTEX
  8
Top_Mask
  10
2.0
  20
2.0
  42
0
  0
VERTEX
  8
Top_Mask
  10
20.0
  20
2.0
  42
0
  0
VERTEX
  8
Top_Mask
  10
20.0
  20
0.0
  42
0
  0
VERTEX
  8
Top_Mask
  10
0.0
  20
0.0
  42
0
  0
SEQEND
  0
POLYLINE
  8
Top_Mask
  6
CONTINUOUS
  70
1
  0
VERTEX
  8
Top_Mask
  10
0.0
  20
460.0
  42
0
  0
VERTEX
  8
Top_Mask
  10
0.0
  20
480.0
  42
0
  0
VERTEX
  8
Top_Mask
  10
20.0
  20
480.0
  42
0
  0
VERTEX
  8
Top_Mask
  10
20.0
  20
478.0
  42
0
  0
VERTEX
  8
Top_Mask
  10
2.0
  20
478.0
  42
0
  0
VERTEX
  8
Top_Mask
  10
2.0
  20
460.0
  42
0
  0
VERTEX
  8
Top_Mask
  10
0.0
  20
460.0
  42
0
  0
SEQEND
  0
POLYLINE
  8
Top_Mask
  6
CONTINUOUS
  70
1
  0
VERTEX
  8
Top_Mask
  10
598.0
  20
460.0
  42
0
  0
VERTEX
  8
Top_Mask
  10
598.0
  20
478.0
  42
0
  0
VERTEX
  8
Top_Mask
  10
580.0
  20
478.0
  42
0
  0
VERTEX
  8
Top_Mask
  10
580.0
  20
480.0
  42
0
  0
VERTEX
  8
Top_Mask
  10
600.0
  20
480.0
  42
0
  0
VERTEX
  8
Top_Mask
  10
600.0
  20
460.0
  42
0
  0
VERTEX
  8
Top_Mask
  10
598.0
  20
460.0
  42
0
  0
SEQEND
  0
POLYLINE
  8
Top_Mask
  6
CONTINUOUS
  70
1
  0
VERTEX
  8
Top_Mask
  10
580.0
  20
0.0
  42
0
  0
VERTEX
  8
Top_Mask
  10
580.0
  20
2.0
  42
0
  0
VERTEX
  8
Top_Mask
  10
598.0
  20
2.0
  42
0
  0
VERTEX
  8
Top_Mask
  10
598.0
  20
20.0
  42
0
  0
VERTEX
  8
Top_Mask
  10
600.0
  20
20.0
  42
0
  0
VERTEX
  8
Top_Mask
  10
600.0
  20
0.0
  42
0
  0
VERTEX
  8
Top_Mask
  10
580.0
  20
0.0
  42
0
  0
SEQEND
  0
POLYLINE
  8
Top_Mask
  6
CONTINUOUS
  70
1
  0
VERTEX
  8
Top_Mask
  10
293.0
  20
12.0
  42
0
  0
VERTEX
  8
Top_Mask
  10
293.0
  20
20.0
  42
0
  0
VERTEX
  8
Top_Mask
  10
308.0
  20
20.0
  42
0
  0
VERTEX
  8
Top_Mask
  10
308.0
  20
12.0
  42
0
  0
VERTEX
  8
Top_Mask
  10
305.0
  20
12.0
  42
0
  0
VERTEX
  8
Top_Mask
  10
305.0
  20
17.0
  42
0
  0
VERTEX
  8
Top_Mask
  10
296.0
  20
17.0
  42
0
  0
VERTEX
  8
Top_Mask
  10
296.0
  20
12.0
  42
0
  0
VERTEX
  8
Top_Mask
  10
293.0
  20
12.0
  42
0
  0
SEQEND
  0
POLYLINE
  8
Top_Mask
  6
CONTINUOUS
  70
1
  0
VERTEX
  8
Top_Mask
  10
293.0
  20
5.0
  42
0
  0
VERTEX
  8
Top_Mask
  10
293.0
  20
12.0
  42
0
  0
VERTEX
  8
Top_Mask
  10
296.0
  20
12.0
  42
0
  0
VERTEX
  8
Top_Mask
  10
296.0
  20
8.0
  42
0
  0
VERTEX
  8
Top_Mask
  10
305.0
  20
8.0
  42
0
  0
VERTEX
  8
Top_Mask
  10
305.0
  20
12.0
  42
0
  0
VERTEX
  8
Top_Mask
  10
308.0
  20
12.0
  42
0
  0
VERTEX
  8
Top_Mask
  10
308.0
  20
5.0
  42
0
  0
VERTEX
  8
Top_Mask
  10
293.0
  20
5.0
  42
0
  0
SEQEND
  0
ENDSEC
  0
EOF
