  0
SECTION
  2
HEADER
  9
$ACADVER
  1
AC1009
  9
$ANGDIR
  70
0
  9
$CECOLOR
  62
256
  9
$CELTYPE
  6
BYLAYER
  9
$EXTMIN
  10
0.0
  20
0.0
  9
$EXTMAX
  10
600.0
  20
480.0
  9
$FILLMODE
  70
1
  9
$MIRRTEXT
  70
0
  0
ENDSEC
  0
SECTION
  2
TABLES
  0
TABLE
  2
LAYER
  70
19
  0
LAYER
  2
Top_Mask
  70
64
  62
3
  6
CONTINUOUS
  0
ENDTAB
  0
ENDSEC
  0
SECTION
  2
ENTITIES
  0
POLYLINE
  8
Top_Mask
  6
CONTINUOUS
  70
1
  0
VERTEX
  8
Top_Mask
  10
1.25
  20
1.95
  42
0
  0
VERTEX
  8
Top_Mask
  10
1.25
  20
22.05
  42
0
  0
VERTEX
  8
Top_Mask
  10
29.15
  20
22.05
  42
0
  0
VERTEX
  8
Top_Mask
  10
29.15
  20
4.00
  42
0
  0
VERTEX
  8
Top_Mask
  10
27.90
  20
4.00
  42
0
  0
VERTEX
  8
Top_Mask
  10
27.90
  20
3.45
  42
0
  0
VERTEX
  8
Top_Mask
  10
28.20
  20
3.45
  42
0
  0
VERTEX
  8
Top_Mask
  10
28.20
  20
1.95
  42
0
  0
VERTEX
  8
Top_Mask
  10
8.80
  20
1.95
  42
0
  0
VERTEX
  8
Top_Mask
  10
8.80
  20
4.85
  42
0
  0
VERTEX
  8
Top_Mask
  10
7.20
  20
4.85
  42
0
  0
VERTEX
  8
Top_Mask
  10
7.20
  20
4.60
  42
0
  0
VERTEX
  8
Top_Mask
  10
2.90
  20
4.60
  42
0
  0
VERTEX
  8
Top_Mask
  10
2.90
  20
3.20
  42
0
  0
VERTEX
  8
Top_Mask
  10
7.20
  20
3.20
  42
0
  0
VERTEX
  8
Top_Mask
  10
7.20
  20
1.95
  42
0
  0
VERTEX
  8
Top_Mask
  10
1.25
  20
1.95
  42
0
  0
SEQEND
  0
POLYLINE
  8
Top_Mask
  6
CONTINUOUS
  70
1
  0
VERTEX
  8
Top_Mask
  10
19.00
  20
6.10
  42
0
  0
VERTEX
  8
Top_Mask
  10
19.00
  20
5.60
  42
0
  0
VERTEX
  8
Top_Mask
  10
18.45
  20
5.60
  42
0
  0
VERTEX
  8
Top_Mask
  10
18.45
  20
6.10
  42
0
  0
VERTEX
  8
Top_Mask
  10
19.00
  20
6.10
  42
0
  0
SEQEND
  0
POLYLINE
  8
Top_Mask
  6
CONTINUOUS
  70
1
  0
VERTEX
  8
Top_Mask
  10
18.90
  20
8.95
  42
0
  0
VERTEX
  8
Top_Mask
  10
18.90
  20
8.40
  42
0
  0
VERTEX
  8
Top_Mask
  10
18.35
  20
8.40
  42
0
  0
VERTEX
  8
Top_Mask
  10
18.35
  20
8.95
  42
0
  0
VERTEX
  8
Top_Mask
  10
18.90
  20
8.95
  42
0
  0
SEQEND
  0
POLYLINE
  8
Top_Mask
  6
CONTINUOUS
  70
1
  0
VERTEX
  8
Top_Mask
  10
4.10
  20
6.85
  42
0
  0
VERTEX
  8
Top_Mask
  10
4.10
  20
7.35
  42
0
  0
VERTEX
  8
Top_Mask
  10
4.60
  20
7.35
  42
0
  0
VERTEX
  8
Top_Mask
  10
4.60
  20
6.85
  42
0
  0
VERTEX
  8
Top_Mask
  10
4.10
  20
6.85
  42
0
  0
SEQEND
  0
POLYLINE
  8
Top_Mask
  6
CONTINUOUS
  70
1
  0
VERTEX
  8
Top_Mask
  10
6.10
  20
6.35
  42
0
  0
VERTEX
  8
Top_Mask
  10
6.10
  20
6.85
  42
0
  0
VERTEX
  8
Top_Mask
  10
6.60
  20
6.85
  42
0
  0
VERTEX
  8
Top_Mask
  10
6.60
  20
6.35
  42
0
  0
VERTEX
  8
Top_Mask
  10
6.10
  20
6.35
  42
0
  0
SEQEND
  0
POLYLINE
  8
Top_Mask
  6
CONTINUOUS
  70
1
  0
VERTEX
  8
Top_Mask
  10
7.15
  20
6.35
  42
0
  0
VERTEX
  8
Top_Mask
  10
7.15
  20
6.85
  42
0
  0
VERTEX
  8
Top_Mask
  10
7.65
  20
6.85
  42
0
  0
VERTEX
  8
Top_Mask
  10
7.65
  20
6.35
  42
0
  0
VERTEX
  8
Top_Mask
  10
7.15
  20
6.35
  42
0
  0
SEQEND
  0
POLYLINE
  8
Top_Mask
  6
CONTINUOUS
  70
1
  0
VERTEX
  8
Top_Mask
  10
7.90
  20
5.85
  42
0
  0
VERTEX
  8
Top_Mask
  10
7.90
  20
6.35
  42
0
  0
VERTEX
  8
Top_Mask
  10
8.40
  20
6.35
  42
0
  0
VERTEX
  8
Top_Mask
  10
8.40
  20
5.85
  42
0
  0
VERTEX
  8
Top_Mask
  10
7.90
  20
5.85
  42
0
  0
SEQEND
  0
POLYLINE
  8
Top_Mask
  6
CONTINUOUS
  70
1
  0
VERTEX
  8
Top_Mask
  10
8.90
  20
6.35
  42
0
  0
VERTEX
  8
Top_Mask
  10
8.90
  20
6.85
  42
0
  0
VERTEX
  8
Top_Mask
  10
9.45
  20
6.85
  42
0
  0
VERTEX
  8
Top_Mask
  10
9.45
  20
7.35
  42
0
  0
VERTEX
  8
Top_Mask
  10
11.35
  20
7.35
  42
0
  0
VERTEX
  8
Top_Mask
  10
11.35
  20
6.85
  42
0
  0
VERTEX
  8
Top_Mask
  10
10.40
  20
6.85
  42
0
  0
VERTEX
  8
Top_Mask
  10
10.40
  20
6.35
  42
0
  0
VERTEX
  8
Top_Mask
  10
8.90
  20
6.35
  42
0
  0
SEQEND
  0
POLYLINE
  8
Top_Mask
  6
CONTINUOUS
  70
1
  0
VERTEX
  8
Top_Mask
  10
9.75
  20
3.05
  42
0
  0
VERTEX
  8
Top_Mask
  10
9.75
  20
4.45
  42
0
  0
VERTEX
  8
Top_Mask
  10
13.95
  20
4.45
  42
0
  0
VERTEX
  8
Top_Mask
  10
13.95
  20
5.25
  42
0
  0
VERTEX
  8
Top_Mask
  10
15.55
  20
5.25
  42
0
  0
VERTEX
  8
Top_Mask
  10
15.55
  20
2.35
  42
0
  0
VERTEX
  8
Top_Mask
  10
12.65
  20
2.35
  42
0
  0
VERTEX
  8
Top_Mask
  10
12.65
  20
3.05
  42
0
  0
VERTEX
  8
Top_Mask
  10
9.75
  20
3.05
  42
0
  0
SEQEND
  0
POLYLINE
  8
Top_Mask
  6
CONTINUOUS
  70
1
  0
VERTEX
  8
Top_Mask
  10
11.95
  20
5.95
  42
0
  0
VERTEX
  8
Top_Mask
  10
11.95
  20
6.40
  42
0
  0
VERTEX
  8
Top_Mask
  10
12.45
  20
6.40
  42
0
  0
VERTEX
  8
Top_Mask
  10
12.45
  20
5.95
  42
0
  0
VERTEX
  8
Top_Mask
  10
11.95
  20
5.95
  42
0
  0
SEQEND
  0
POLYLINE
  8
Top_Mask
  6
CONTINUOUS
  70
1
  0
VERTEX
  8
Top_Mask
  10
12.95
  20
6.00
  42
0
  0
VERTEX
  8
Top_Mask
  10
12.95
  20
6.50
  42
0
  0
VERTEX
  8
Top_Mask
  10
13.85
  20
6.50
  42
0
  0
VERTEX
  8
Top_Mask
  10
13.85
  20
6.00
  42
0
  0
VERTEX
  8
Top_Mask
  10
12.95
  20
6.00
  42
0
  0
SEQEND
  0
POLYLINE
  8
Top_Mask
  6
CONTINUOUS
  70
1
  0
VERTEX
  8
Top_Mask
  10
14.40
  20
6.05
  42
0
  0
VERTEX
  8
Top_Mask
  10
14.40
  20
6.55
  42
0
  0
VERTEX
  8
Top_Mask
  10
14.90
  20
6.55
  42
0
  0
VERTEX
  8
Top_Mask
  10
14.90
  20
6.05
  42
0
  0
VERTEX
  8
Top_Mask
  10
14.40
  20
6.05
  42
0
  0
SEQEND
  0
POLYLINE
  8
Top_Mask
  6
CONTINUOUS
  70
1
  0
VERTEX
  8
Top_Mask
  10
15.45
  20
6.75
  42
0
  0
VERTEX
  8
Top_Mask
  10
15.45
  20
7.35
  42
0
  0
VERTEX
  8
Top_Mask
  10
15.95
  20
7.35
  42
0
  0
VERTEX
  8
Top_Mask
  10
15.95
  20
6.75
  42
0
  0
VERTEX
  8
Top_Mask
  10
15.45
  20
6.75
  42
0
  0
SEQEND
  0
POLYLINE
  8
Top_Mask
  6
CONTINUOUS
  70
1
  0
VERTEX
  8
Top_Mask
  10
16.90
  20
6.35
  42
0
  0
VERTEX
  8
Top_Mask
  10
16.90
  20
6.85
  42
0
  0
VERTEX
  8
Top_Mask
  10
18.35
  20
6.85
  42
0
  0
VERTEX
  8
Top_Mask
  10
18.35
  20
6.35
  42
0
  0
VERTEX
  8
Top_Mask
  10
16.90
  20
6.35
  42
0
  0
SEQEND
  0
POLYLINE
  8
Top_Mask
  6
CONTINUOUS
  70
1
  0
VERTEX
  8
Top_Mask
  10
18.75
  20
4.40
  42
0
  0
VERTEX
  8
Top_Mask
  10
18.75
  20
5.45
  42
0
  0
VERTEX
  8
Top_Mask
  10
19.25
  20
5.45
  42
0
  0
VERTEX
  8
Top_Mask
  10
19.25
  20
4.40
  42
0
  0
VERTEX
  8
Top_Mask
  10
18.75
  20
4.40
  42
0
  0
SEQEND
  0
POLYLINE
  8
Top_Mask
  6
CONTINUOUS
  70
1
  0
VERTEX
  8
Top_Mask
  10
16.40
  20
2.40
  42
0
  0
VERTEX
  8
Top_Mask
  10
16.40
  20
2.90
  42
0
  0
VERTEX
  8
Top_Mask
  10
16.90
  20
2.90
  42
0
  0
VERTEX
  8
Top_Mask
  10
16.90
  20
3.10
  42
0
  0
VERTEX
  8
Top_Mask
  10
19.35
  20
3.10
  42
0
  0
VERTEX
  8
Top_Mask
  10
19.35
  20
2.60
  42
0
  0
VERTEX
  8
Top_Mask
  10
16.90
  20
2.60
  42
0
  0
VERTEX
  8
Top_Mask
  10
16.90
  20
2.40
  42
0
  0
VERTEX
  8
Top_Mask
  10
16.40
  20
2.40
  42
0
  0
SEQEND
  0
POLYLINE
  8
Top_Mask
  6
CONTINUOUS
  70
1
  0
VERTEX
  8
Top_Mask
  10
21.90
  20
3.65
  42
0
  0
VERTEX
  8
Top_Mask
  10
21.90
  20
4.15
  42
0
  0
VERTEX
  8
Top_Mask
  10
22.40
  20
4.15
  42
0
  0
VERTEX
  8
Top_Mask
  10
22.40
  20
3.65
  42
0
  0
VERTEX
  8
Top_Mask
  10
21.90
  20
3.65
  42
0
  0
SEQEND
  0
POLYLINE
  8
Top_Mask
  6
CONTINUOUS
  70
1
  0
VERTEX
  8
Top_Mask
  10
21.75
  20
2.65
  42
0
  0
VERTEX
  8
Top_Mask
  10
21.75
  20
3.15
  42
0
  0
VERTEX
  8
Top_Mask
  10
23.25
  20
3.15
  42
0
  0
VERTEX
  8
Top_Mask
  10
23.25
  20
3.35
  42
0
  0
VERTEX
  8
Top_Mask
  10
24.25
  20
3.35
  42
0
  0
VERTEX
  8
Top_Mask
  10
24.25
  20
2.85
  42
0
  0
VERTEX
  8
Top_Mask
  10
23.25
  20
2.85
  42
0
  0
VERTEX
  8
Top_Mask
  10
23.25
  20
2.45
  42
0
  0
VERTEX
  8
Top_Mask
  10
22.25
  20
2.45
  42
0
  0
VERTEX
  8
Top_Mask
  10
22.25
  20
2.65
  42
0
  0
VERTEX
  8
Top_Mask
  10
21.75
  20
2.65
  42
0
  0
SEQEND
  0
POLYLINE
  8
Top_Mask
  6
CONTINUOUS
  70
1
  0
VERTEX
  8
Top_Mask
  10
4.40
  20
2.15
  42
0
  0
VERTEX
  8
Top_Mask
  10
4.40
  20
2.85
  42
0
  0
VERTEX
  8
Top_Mask
  10
5.10
  20
2.85
  42
0
  0
VERTEX
  8
Top_Mask
  10
5.10
  20
2.15
  42
0
  0
VERTEX
  8
Top_Mask
  10
4.40
  20
2.15
  42
0
  0
SEQEND
  0
POLYLINE
  8
Top_Mask
  6
CONTINUOUS
  70
1
  0
VERTEX
  8
Top_Mask
  10
21.40
  20
6.90
  42
0
  0
VERTEX
  8
Top_Mask
  10
21.40
  20
7.85
  42
0
  0
VERTEX
  8
Top_Mask
  10
21.90
  20
7.85
  42
0
  0
VERTEX
  8
Top_Mask
  10
21.90
  20
6.90
  42
0
  0
VERTEX
  8
Top_Mask
  10
21.40
  20
6.90
  42
0
  0
SEQEND
  0
POLYLINE
  8
Top_Mask
  6
CONTINUOUS
  70
1
  0
VERTEX
  8
Top_Mask
  10
21.85
  20
8.25
  42
0
  0
VERTEX
  8
Top_Mask
  10
21.85
  20
8.75
  42
0
  0
VERTEX
  8
Top_Mask
  10
25.25
  20
8.75
  42
0
  0
VERTEX
  8
Top_Mask
  10
25.25
  20
8.25
  42
0
  0
VERTEX
  8
Top_Mask
  10
21.85
  20
8.25
  42
0
  0
SEQEND
  0
POLYLINE
  8
Top_Mask
  6
CONTINUOUS
  70
1
  0
VERTEX
  8
Top_Mask
  10
23.00
  20
9.20
  42
0
  0
VERTEX
  8
Top_Mask
  10
23.00
  20
9.70
  42
0
  0
VERTEX
  8
Top_Mask
  10
24.05
  20
9.70
  42
0
  0
VERTEX
  8
Top_Mask
  10
24.05
  20
9.20
  42
0
  0
VERTEX
  8
Top_Mask
  10
23.00
  20
9.20
  42
0
  0
SEQEND
  0
POLYLINE
  8
Top_Mask
  6
CONTINUOUS
  70
1
  0
VERTEX
  8
Top_Mask
  10
25.10
  20
9.15
  42
0
  0
VERTEX
  8
Top_Mask
  10
25.10
  20
9.65
  42
0
  0
VERTEX
  8
Top_Mask
  10
25.60
  20
9.65
  42
0
  0
VERTEX
  8
Top_Mask
  10
25.60
  20
9.15
  42
0
  0
VERTEX
  8
Top_Mask
  10
25.10
  20
9.15
  42
0
  0
SEQEND
  0
POLYLINE
  8
Top_Mask
  6
CONTINUOUS
  70
1
  0
VERTEX
  8
Top_Mask
  10
27.60
  20
8.10
  42
0
  0
VERTEX
  8
Top_Mask
  10
27.60
  20
8.75
  42
0
  0
VERTEX
  8
Top_Mask
  10
28.65
  20
8.75
  42
0
  0
VERTEX
  8
Top_Mask
  10
28.65
  20
8.10
  42
0
  0
VERTEX
  8
Top_Mask
  10
27.60
  20
8.10
  42
0
  0
SEQEND
  0
POLYLINE
  8
Top_Mask
  6
CONTINUOUS
  70
1
  0
VERTEX
  8
Top_Mask
  10
20.00
  20
8.80
  42
0
  0
VERTEX
  8
Top_Mask
  10
20.00
  20
9.30
  42
0
  0
VERTEX
  8
Top_Mask
  10
20.60
  20
9.30
  42
0
  0
VERTEX
  8
Top_Mask
  10
20.60
  20
8.80
  42
0
  0
VERTEX
  8
Top_Mask
  10
20.00
  20
8.80
  42
0
  0
SEQEND
  0
POLYLINE
  8
Top_Mask
  6
CONTINUOUS
  70
1
  0
VERTEX
  8
Top_Mask
  10
20.35
  20
10.35
  42
0
  0
VERTEX
  8
Top_Mask
  10
20.35
  20
10.85
  42
0
  0
VERTEX
  8
Top_Mask
  10
20.85
  20
10.85
  42
0
  0
VERTEX
  8
Top_Mask
  10
20.85
  20
10.35
  42
0
  0
VERTEX
  8
Top_Mask
  10
20.35
  20
10.35
  42
0
  0
SEQEND
  0
POLYLINE
  8
Top_Mask
  6
CONTINUOUS
  70
1
  0
VERTEX
  8
Top_Mask
  10
16.25
  20
8.95
  42
0
  0
VERTEX
  8
Top_Mask
  10
16.25
  20
8.40
  42
0
  0
VERTEX
  8
Top_Mask
  10
15.65
  20
8.40
  42
0
  0
VERTEX
  8
Top_Mask
  10
15.65
  20
8.95
  42
0
  0
VERTEX
  8
Top_Mask
  10
16.25
  20
8.95
  42
0
  0
SEQEND
  0
POLYLINE
  8
Top_Mask
  6
CONTINUOUS
  70
1
  0
VERTEX
  8
Top_Mask
  10
10.15
  20
8.10
  42
0
  0
VERTEX
  8
Top_Mask
  10
10.15
  20
9.05
  42
0
  0
VERTEX
  8
Top_Mask
  10
10.65
  20
9.05
  42
0
  0
VERTEX
  8
Top_Mask
  10
10.65
  20
8.10
  42
0
  0
VERTEX
  8
Top_Mask
  10
10.15
  20
8.10
  42
0
  0
SEQEND
  0
POLYLINE
  8
Top_Mask
  6
CONTINUOUS
  70
1
  0
VERTEX
  8
Top_Mask
  10
8.75
  20
8.50
  42
0
  0
VERTEX
  8
Top_Mask
  10
8.75
  20
9.00
  42
0
  0
VERTEX
  8
Top_Mask
  10
9.75
  20
9.00
  42
0
  0
VERTEX
  8
Top_Mask
  10
9.75
  20
8.50
  42
0
  0
VERTEX
  8
Top_Mask
  10
8.75
  20
8.50
  42
0
  0
SEQEND
  0
POLYLINE
  8
Top_Mask
  6
CONTINUOUS
  70
1
  0
VERTEX
  8
Top_Mask
  10
4.25
  20
7.85
  42
0
  0
VERTEX
  8
Top_Mask
  10
4.25
  20
8.35
  42
0
  0
VERTEX
  8
Top_Mask
  10
4.75
  20
8.35
  42
0
  0
VERTEX
  8
Top_Mask
  10
4.75
  20
7.85
  42
0
  0
VERTEX
  8
Top_Mask
  10
4.25
  20
7.85
  42
0
  0
SEQEND
  0
POLYLINE
  8
Top_Mask
  6
CONTINUOUS
  70
1
  0
VERTEX
  8
Top_Mask
  10
2.80
  20
8.65
  42
0
  0
VERTEX
  8
Top_Mask
  10
2.80
  20
9.15
  42
0
  0
VERTEX
  8
Top_Mask
  10
3.30
  20
9.15
  42
0
  0
VERTEX
  8
Top_Mask
  10
3.30
  20
8.65
  42
0
  0
VERTEX
  8
Top_Mask
  10
2.80
  20
8.65
  42
0
  0
SEQEND
  0
POLYLINE
  8
Top_Mask
  6
CONTINUOUS
  70
1
  0
VERTEX
  8
Top_Mask
  10
2.60
  20
9.50
  42
0
  0
VERTEX
  8
Top_Mask
  10
2.60
  20
10.00
  42
0
  0
VERTEX
  8
Top_Mask
  10
3.10
  20
10.00
  42
0
  0
VERTEX
  8
Top_Mask
  10
3.10
  20
9.50
  42
0
  0
VERTEX
  8
Top_Mask
  10
2.60
  20
9.50
  42
0
  0
SEQEND
  0
POLYLINE
  8
Top_Mask
  6
CONTINUOUS
  70
1
  0
VERTEX
  8
Top_Mask
  10
3.65
  20
9.50
  42
0
  0
VERTEX
  8
Top_Mask
  10
3.65
  20
10.00
  42
0
  0
VERTEX
  8
Top_Mask
  10
4.15
  20
10.00
  42
0
  0
VERTEX
  8
Top_Mask
  10
4.15
  20
9.50
  42
0
  0
VERTEX
  8
Top_Mask
  10
3.65
  20
9.50
  42
0
  0
SEQEND
  0
POLYLINE
  8
Top_Mask
  6
CONTINUOUS
  70
1
  0
VERTEX
  8
Top_Mask
  10
4.50
  20
9.60
  42
0
  0
VERTEX
  8
Top_Mask
  10
4.50
  20
10.25
  42
0
  0
VERTEX
  8
Top_Mask
  10
5.50
  20
10.25
  42
0
  0
VERTEX
  8
Top_Mask
  10
5.50
  20
9.60
  42
0
  0
VERTEX
  8
Top_Mask
  10
4.50
  20
9.60
  42
0
  0
SEQEND
  0
POLYLINE
  8
Top_Mask
  6
CONTINUOUS
  70
1
  0
VERTEX
  8
Top_Mask
  10
6.50
  20
9.75
  42
0
  0
VERTEX
  8
Top_Mask
  10
6.50
  20
10.25
  42
0
  0
VERTEX
  8
Top_Mask
  10
7.50
  20
10.25
  42
0
  0
VERTEX
  8
Top_Mask
  10
7.50
  20
9.75
  42
0
  0
VERTEX
  8
Top_Mask
  10
6.50
  20
9.75
  42
0
  0
SEQEND
  0
POLYLINE
  8
Top_Mask
  6
CONTINUOUS
  70
1
  0
VERTEX
  8
Top_Mask
  10
8.15
  20
9.75
  42
0
  0
VERTEX
  8
Top_Mask
  10
8.15
  20
10.25
  42
0
  0
VERTEX
  8
Top_Mask
  10
8.65
  20
10.25
  42
0
  0
VERTEX
  8
Top_Mask
  10
8.65
  20
9.75
  42
0
  0
VERTEX
  8
Top_Mask
  10
8.15
  20
9.75
  42
0
  0
SEQEND
  0
POLYLINE
  8
Top_Mask
  6
CONTINUOUS
  70
1
  0
VERTEX
  8
Top_Mask
  10
8.75
  20
10.60
  42
0
  0
VERTEX
  8
Top_Mask
  10
8.75
  20
11.10
  42
0
  0
VERTEX
  8
Top_Mask
  10
9.25
  20
11.10
  42
0
  0
VERTEX
  8
Top_Mask
  10
9.25
  20
10.60
  42
0
  0
VERTEX
  8
Top_Mask
  10
8.75
  20
10.60
  42
0
  0
SEQEND
  0
POLYLINE
  8
Top_Mask
  6
CONTINUOUS
  70
1
  0
VERTEX
  8
Top_Mask
  10
7.05
  20
13.55
  42
0
  0
VERTEX
  8
Top_Mask
  10
7.05
  20
16.95
  42
0
  0
VERTEX
  8
Top_Mask
  10
8.45
  20
16.95
  42
0
  0
VERTEX
  8
Top_Mask
  10
8.45
  20
13.55
  42
0
  0
VERTEX
  8
Top_Mask
  10
7.05
  20
13.55
  42
0
  0
SEQEND
  0
POLYLINE
  8
Top_Mask
  6
CONTINUOUS
  70
1
  0
VERTEX
  8
Top_Mask
  10
10.10
  20
15.15
  42
0
  0
VERTEX
  8
Top_Mask
  10
10.10
  20
15.65
  42
0
  0
VERTEX
  8
Top_Mask
  10
10.60
  20
15.65
  42
0
  0
VERTEX
  8
Top_Mask
  10
10.60
  20
15.15
  42
0
  0
VERTEX
  8
Top_Mask
  10
10.10
  20
15.15
  42
0
  0
SEQEND
  0
POLYLINE
  8
Top_Mask
  6
CONTINUOUS
  70
1
  0
VERTEX
  8
Top_Mask
  10
11.15
  20
13.00
  42
0
  0
VERTEX
  8
Top_Mask
  10
11.15
  20
13.50
  42
0
  0
VERTEX
  8
Top_Mask
  10
11.75
  20
13.50
  42
0
  0
VERTEX
  8
Top_Mask
  10
11.75
  20
14.00
  42
0
  0
VERTEX
  8
Top_Mask
  10
12.40
  20
14.00
  42
0
  0
VERTEX
  8
Top_Mask
  10
12.40
  20
13.00
  42
0
  0
VERTEX
  8
Top_Mask
  10
11.15
  20
13.00
  42
0
  0
SEQEND
  0
POLYLINE
  8
Top_Mask
  6
CONTINUOUS
  70
1
  0
VERTEX
  8
Top_Mask
  10
12.35
  20
15.15
  42
0
  0
VERTEX
  8
Top_Mask
  10
12.35
  20
15.65
  42
0
  0
VERTEX
  8
Top_Mask
  10
12.85
  20
15.65
  42
0
  0
VERTEX
  8
Top_Mask
  10
12.85
  20
15.15
  42
0
  0
VERTEX
  8
Top_Mask
  10
12.35
  20
15.15
  42
0
  0
SEQEND
  0
POLYLINE
  8
Top_Mask
  6
CONTINUOUS
  70
1
  0
VERTEX
  8
Top_Mask
  10
13.75
  20
15.15
  42
0
  0
VERTEX
  8
Top_Mask
  10
13.75
  20
15.65
  42
0
  0
VERTEX
  8
Top_Mask
  10
14.90
  20
15.65
  42
0
  0
VERTEX
  8
Top_Mask
  10
14.90
  20
15.15
  42
0
  0
VERTEX
  8
Top_Mask
  10
13.75
  20
15.15
  42
0
  0
SEQEND
  0
POLYLINE
  8
Top_Mask
  6
CONTINUOUS
  70
1
  0
VERTEX
  8
Top_Mask
  10
15.45
  20
15.40
  42
0
  0
VERTEX
  8
Top_Mask
  10
15.45
  20
15.90
  42
0
  0
VERTEX
  8
Top_Mask
  10
15.95
  20
15.90
  42
0
  0
VERTEX
  8
Top_Mask
  10
15.95
  20
15.40
  42
0
  0
VERTEX
  8
Top_Mask
  10
15.45
  20
15.40
  42
0
  0
SEQEND
  0
POLYLINE
  8
Top_Mask
  6
CONTINUOUS
  70
1
  0
VERTEX
  8
Top_Mask
  10
16.90
  20
13.10
  42
0
  0
VERTEX
  8
Top_Mask
  10
16.90
  20
13.60
  42
0
  0
VERTEX
  8
Top_Mask
  10
17.40
  20
13.60
  42
0
  0
VERTEX
  8
Top_Mask
  10
17.40
  20
13.10
  42
0
  0
VERTEX
  8
Top_Mask
  10
16.90
  20
13.10
  42
0
  0
SEQEND
  0
POLYLINE
  8
Top_Mask
  6
CONTINUOUS
  70
1
  0
VERTEX
  8
Top_Mask
  10
18.90
  20
17.35
  42
0
  0
VERTEX
  8
Top_Mask
  10
18.90
  20
16.35
  42
0
  0
VERTEX
  8
Top_Mask
  10
18.40
  20
16.35
  42
0
  0
VERTEX
  8
Top_Mask
  10
18.40
  20
15.75
  42
0
  0
VERTEX
  8
Top_Mask
  10
17.90
  20
15.75
  42
0
  0
VERTEX
  8
Top_Mask
  10
17.90
  20
17.35
  42
0
  0
VERTEX
  8
Top_Mask
  10
18.90
  20
17.35
  42
0
  0
SEQEND
  0
POLYLINE
  8
Top_Mask
  6
CONTINUOUS
  70
1
  0
VERTEX
  8
Top_Mask
  10
18.95
  20
15.65
  42
0
  0
VERTEX
  8
Top_Mask
  10
18.95
  20
16.25
  42
0
  0
VERTEX
  8
Top_Mask
  10
20.65
  20
16.25
  42
0
  0
VERTEX
  8
Top_Mask
  10
20.65
  20
18.20
  42
0
  0
VERTEX
  8
Top_Mask
  10
22.05
  20
18.20
  42
0
  0
VERTEX
  8
Top_Mask
  10
22.05
  20
16.45
  42
0
  0
VERTEX
  8
Top_Mask
  10
25.10
  20
16.45
  42
0
  0
VERTEX
  8
Top_Mask
  10
25.10
  20
13.55
  42
0
  0
VERTEX
  8
Top_Mask
  10
23.50
  20
13.55
  42
0
  0
VERTEX
  8
Top_Mask
  10
23.50
  20
14.80
  42
0
  0
VERTEX
  8
Top_Mask
  10
20.65
  20
14.80
  42
0
  0
VERTEX
  8
Top_Mask
  10
20.65
  20
15.65
  42
0
  0
VERTEX
  8
Top_Mask
  10
18.95
  20
15.65
  42
0
  0
SEQEND
  0
POLYLINE
  8
Top_Mask
  6
CONTINUOUS
  70
1
  0
VERTEX
  8
Top_Mask
  10
11.15
  20
14.15
  42
0
  0
VERTEX
  8
Top_Mask
  10
11.15
  20
14.85
  42
0
  0
VERTEX
  8
Top_Mask
  10
11.75
  20
14.85
  42
0
  0
VERTEX
  8
Top_Mask
  10
11.75
  20
14.15
  42
0
  0
VERTEX
  8
Top_Mask
  10
11.15
  20
14.15
  42
0
  0
SEQEND
  0
POLYLINE
  8
Top_Mask
  6
CONTINUOUS
  70
1
  0
VERTEX
  8
Top_Mask
  10
21.65
  20
12.50
  42
0
  0
VERTEX
  8
Top_Mask
  10
21.65
  20
12.75
  42
0
  0
VERTEX
  8
Top_Mask
  10
20.60
  20
12.75
  42
0
  0
VERTEX
  8
Top_Mask
  10
20.60
  20
13.25
  42
0
  0
VERTEX
  8
Top_Mask
  10
21.60
  20
13.25
  42
0
  0
VERTEX
  8
Top_Mask
  10
21.60
  20
13.00
  42
0
  0
VERTEX
  8
Top_Mask
  10
23.50
  20
13.00
  42
0
  0
VERTEX
  8
Top_Mask
  10
23.50
  20
12.50
  42
0
  0
VERTEX
  8
Top_Mask
  10
21.65
  20
12.50
  42
0
  0
SEQEND
  0
POLYLINE
  8
Top_Mask
  6
CONTINUOUS
  70
1
  0
VERTEX
  8
Top_Mask
  10
24.15
  20
12.50
  42
0
  0
VERTEX
  8
Top_Mask
  10
24.15
  20
13.00
  42
0
  0
VERTEX
  8
Top_Mask
  10
24.75
  20
13.00
  42
0
  0
VERTEX
  8
Top_Mask
  10
24.75
  20
12.50
  42
0
  0
VERTEX
  8
Top_Mask
  10
24.15
  20
12.50
  42
0
  0
SEQEND
  0
POLYLINE
  8
Top_Mask
  6
CONTINUOUS
  70
1
  0
VERTEX
  8
Top_Mask
  10
25.40
  20
15.50
  42
0
  0
VERTEX
  8
Top_Mask
  10
25.40
  20
16.10
  42
0
  0
VERTEX
  8
Top_Mask
  10
25.90
  20
16.10
  42
0
  0
VERTEX
  8
Top_Mask
  10
25.90
  20
15.50
  42
0
  0
VERTEX
  8
Top_Mask
  10
25.40
  20
15.50
  42
0
  0
SEQEND
  0
POLYLINE
  8
Top_Mask
  6
CONTINUOUS
  70
1
  0
VERTEX
  8
Top_Mask
  10
27.25
  20
17.90
  42
0
  0
VERTEX
  8
Top_Mask
  10
27.25
  20
18.60
  42
0
  0
VERTEX
  8
Top_Mask
  10
27.85
  20
18.60
  42
0
  0
VERTEX
  8
Top_Mask
  10
27.85
  20
17.90
  42
0
  0
VERTEX
  8
Top_Mask
  10
27.25
  20
17.90
  42
0
  0
SEQEND
  0
POLYLINE
  8
Top_Mask
  6
CONTINUOUS
  70
1
  0
VERTEX
  8
Top_Mask
  10
22.90
  20
17.60
  42
0
  0
VERTEX
  8
Top_Mask
  10
22.90
  20
18.10
  42
0
  0
VERTEX
  8
Top_Mask
  10
25.15
  20
18.10
  42
0
  0
VERTEX
  8
Top_Mask
  10
25.15
  20
17.60
  42
0
  0
VERTEX
  8
Top_Mask
  10
22.90
  20
17.60
  42
0
  0
SEQEND
  0
POLYLINE
  8
Top_Mask
  6
CONTINUOUS
  70
1
  0
VERTEX
  8
Top_Mask
  10
27.65
  20
19.50
  42
0
  0
VERTEX
  8
Top_Mask
  10
27.65
  20
20.50
  42
0
  0
VERTEX
  8
Top_Mask
  10
28.15
  20
20.50
  42
0
  0
VERTEX
  8
Top_Mask
  10
28.15
  20
19.50
  42
0
  0
VERTEX
  8
Top_Mask
  10
27.65
  20
19.50
  42
0
  0
SEQEND
  0
POLYLINE
  8
Top_Mask
  6
CONTINUOUS
  70
1
  0
VERTEX
  8
Top_Mask
  10
25.35
  20
19.45
  42
0
  0
VERTEX
  8
Top_Mask
  10
25.35
  20
20.45
  42
0
  0
VERTEX
  8
Top_Mask
  10
26.85
  20
20.45
  42
0
  0
VERTEX
  8
Top_Mask
  10
26.85
  20
19.95
  42
0
  0
VERTEX
  8
Top_Mask
  10
25.85
  20
19.95
  42
0
  0
VERTEX
  8
Top_Mask
  10
25.85
  20
19.45
  42
0
  0
VERTEX
  8
Top_Mask
  10
25.35
  20
19.45
  42
0
  0
SEQEND
  0
POLYLINE
  8
Top_Mask
  6
CONTINUOUS
  70
1
  0
VERTEX
  8
Top_Mask
  10
19.60
  20
19.35
  42
0
  0
VERTEX
  8
Top_Mask
  10
19.60
  20
19.85
  42
0
  0
VERTEX
  8
Top_Mask
  10
20.10
  20
19.85
  42
0
  0
VERTEX
  8
Top_Mask
  10
20.10
  20
19.35
  42
0
  0
VERTEX
  8
Top_Mask
  10
19.60
  20
19.35
  42
0
  0
SEQEND
  0
POLYLINE
  8
Top_Mask
  6
CONTINUOUS
  70
1
  0
VERTEX
  8
Top_Mask
  10
18.85
  20
17.90
  42
0
  0
VERTEX
  8
Top_Mask
  10
18.85
  20
18.40
  42
0
  0
VERTEX
  8
Top_Mask
  10
19.35
  20
18.40
  42
0
  0
VERTEX
  8
Top_Mask
  10
19.35
  20
17.90
  42
0
  0
VERTEX
  8
Top_Mask
  10
18.85
  20
17.90
  42
0
  0
SEQEND
  0
POLYLINE
  8
Top_Mask
  6
CONTINUOUS
  70
1
  0
VERTEX
  8
Top_Mask
  10
17.85
  20
17.90
  42
0
  0
VERTEX
  8
Top_Mask
  10
17.85
  20
18.40
  42
0
  0
VERTEX
  8
Top_Mask
  10
18.40
  20
18.40
  42
0
  0
VERTEX
  8
Top_Mask
  10
18.40
  20
17.90
  42
0
  0
VERTEX
  8
Top_Mask
  10
17.85
  20
17.90
  42
0
  0
SEQEND
  0
POLYLINE
  8
Top_Mask
  6
CONTINUOUS
  70
1
  0
VERTEX
  8
Top_Mask
  10
15.95
  20
17.85
  42
0
  0
VERTEX
  8
Top_Mask
  10
15.95
  20
17.35
  42
0
  0
VERTEX
  8
Top_Mask
  10
15.35
  20
17.35
  42
0
  0
VERTEX
  8
Top_Mask
  10
15.35
  20
17.85
  42
0
  0
VERTEX
  8
Top_Mask
  10
15.95
  20
17.85
  42
0
  0
SEQEND
  0
POLYLINE
  8
Top_Mask
  6
CONTINUOUS
  70
1
  0
VERTEX
  8
Top_Mask
  10
14.30
  20
17.10
  42
0
  0
VERTEX
  8
Top_Mask
  10
14.30
  20
17.60
  42
0
  0
VERTEX
  8
Top_Mask
  10
14.90
  20
17.60
  42
0
  0
VERTEX
  8
Top_Mask
  10
14.90
  20
17.10
  42
0
  0
VERTEX
  8
Top_Mask
  10
14.30
  20
17.10
  42
0
  0
SEQEND
  0
POLYLINE
  8
Top_Mask
  6
CONTINUOUS
  70
1
  0
VERTEX
  8
Top_Mask
  10
12.00
  20
17.15
  42
0
  0
VERTEX
  8
Top_Mask
  10
12.00
  20
17.65
  42
0
  0
VERTEX
  8
Top_Mask
  10
12.50
  20
17.65
  42
0
  0
VERTEX
  8
Top_Mask
  10
12.50
  20
17.15
  42
0
  0
VERTEX
  8
Top_Mask
  10
12.00
  20
17.15
  42
0
  0
SEQEND
  0
POLYLINE
  8
Top_Mask
  6
CONTINUOUS
  70
1
  0
VERTEX
  8
Top_Mask
  10
8.85
  20
16.85
  42
0
  0
VERTEX
  8
Top_Mask
  10
8.85
  20
17.35
  42
0
  0
VERTEX
  8
Top_Mask
  10
9.35
  20
17.35
  42
0
  0
VERTEX
  8
Top_Mask
  10
9.35
  20
16.85
  42
0
  0
VERTEX
  8
Top_Mask
  10
8.85
  20
16.85
  42
0
  0
SEQEND
  0
POLYLINE
  8
Top_Mask
  6
CONTINUOUS
  70
1
  0
VERTEX
  8
Top_Mask
  10
8.85
  20
17.65
  42
0
  0
VERTEX
  8
Top_Mask
  10
8.85
  20
18.15
  42
0
  0
VERTEX
  8
Top_Mask
  10
9.35
  20
18.15
  42
0
  0
VERTEX
  8
Top_Mask
  10
9.35
  20
17.65
  42
0
  0
VERTEX
  8
Top_Mask
  10
8.85
  20
17.65
  42
0
  0
SEQEND
  0
POLYLINE
  8
Top_Mask
  6
CONTINUOUS
  70
1
  0
VERTEX
  8
Top_Mask
  10
2.15
  20
16.35
  42
0
  0
VERTEX
  8
Top_Mask
  10
2.15
  20
15.35
  42
0
  0
VERTEX
  8
Top_Mask
  10
1.65
  20
15.35
  42
0
  0
VERTEX
  8
Top_Mask
  10
1.65
  20
16.35
  42
0
  0
VERTEX
  8
Top_Mask
  10
2.15
  20
16.35
  42
0
  0
SEQEND
  0
POLYLINE
  8
Top_Mask
  6
CONTINUOUS
  70
1
  0
VERTEX
  8
Top_Mask
  10
2.05
  20
16.65
  42
0
  0
VERTEX
  8
Top_Mask
  10
2.05
  20
17.90
  42
0
  0
VERTEX
  8
Top_Mask
  10
2.55
  20
17.90
  42
0
  0
VERTEX
  8
Top_Mask
  10
2.55
  20
16.65
  42
0
  0
VERTEX
  8
Top_Mask
  10
2.05
  20
16.65
  42
0
  0
SEQEND
  0
POLYLINE
  8
Top_Mask
  6
CONTINUOUS
  70
1
  0
VERTEX
  8
Top_Mask
  10
1.85
  20
19.60
  42
0
  0
VERTEX
  8
Top_Mask
  10
1.85
  20
20.40
  42
0
  0
VERTEX
  8
Top_Mask
  10
2.35
  20
20.40
  42
0
  0
VERTEX
  8
Top_Mask
  10
2.35
  20
19.60
  42
0
  0
VERTEX
  8
Top_Mask
  10
1.85
  20
19.60
  42
0
  0
SEQEND
  0
POLYLINE
  8
Top_Mask
  6
CONTINUOUS
  70
1
  0
VERTEX
  8
Top_Mask
  10
4.25
  20
19.90
  42
0
  0
VERTEX
  8
Top_Mask
  10
4.25
  20
19.40
  42
0
  0
VERTEX
  8
Top_Mask
  10
3.15
  20
19.40
  42
0
  0
VERTEX
  8
Top_Mask
  10
3.15
  20
20.40
  42
0
  0
VERTEX
  8
Top_Mask
  10
3.65
  20
20.40
  42
0
  0
VERTEX
  8
Top_Mask
  10
3.65
  20
19.90
  42
0
  0
VERTEX
  8
Top_Mask
  10
4.25
  20
19.90
  42
0
  0
SEQEND
  0
POLYLINE
  8
Top_Mask
  6
CONTINUOUS
  70
1
  0
VERTEX
  8
Top_Mask
  10
4.00
  20
20.15
  42
0
  0
VERTEX
  8
Top_Mask
  10
4.00
  20
20.65
  42
0
  0
VERTEX
  8
Top_Mask
  10
4.50
  20
20.65
  42
0
  0
VERTEX
  8
Top_Mask
  10
4.50
  20
20.15
  42
0
  0
VERTEX
  8
Top_Mask
  10
4.00
  20
20.15
  42
0
  0
SEQEND
  0
POLYLINE
  8
Top_Mask
  6
CONTINUOUS
  70
1
  0
VERTEX
  8
Top_Mask
  10
23.90
  20
18.15
  42
0
  0
VERTEX
  8
Top_Mask
  10
23.90
  20
18.85
  42
0
  0
VERTEX
  8
Top_Mask
  10
24.60
  20
18.85
  42
0
  0
VERTEX
  8
Top_Mask
  10
24.60
  20
18.15
  42
0
  0
VERTEX
  8
Top_Mask
  10
23.90
  20
18.15
  42
0
  0
SEQEND
  0
POLYLINE
  8
Top_Mask
  6
CONTINUOUS
  70
1
  0
VERTEX
  8
Top_Mask
  10
3.65
  20
16.20
  42
0
  0
VERTEX
  8
Top_Mask
  10
3.65
  20
17.80
  42
0
  0
VERTEX
  8
Top_Mask
  10
6.55
  20
17.80
  42
0
  0
VERTEX
  8
Top_Mask
  10
6.55
  20
16.20
  42
0
  0
VERTEX
  8
Top_Mask
  10
3.65
  20
16.20
  42
0
  0
SEQEND
  0
POLYLINE
  8
Top_Mask
  6
CONTINUOUS
  70
1
  0
VERTEX
  8
Top_Mask
  10
25.25
  20
7.35
  42
0
  0
VERTEX
  8
Top_Mask
  10
25.25
  20
7.85
  42
0
  0
VERTEX
  8
Top_Mask
  10
25.75
  20
7.85
  42
0
  0
VERTEX
  8
Top_Mask
  10
25.75
  20
7.35
  42
0
  0
VERTEX
  8
Top_Mask
  10
25.25
  20
7.35
  42
0
  0
SEQEND
  0
POLYLINE
  8
Top_Mask
  6
CONTINUOUS
  70
1
  0
VERTEX
  8
Top_Mask
  10
25.75
  20
2.90
  42
0
  0
VERTEX
  8
Top_Mask
  10
25.75
  20
3.45
  42
0
  0
VERTEX
  8
Top_Mask
  10
26.30
  20
3.45
  42
0
  0
VERTEX
  8
Top_Mask
  10
26.30
  20
2.90
  42
0
  0
VERTEX
  8
Top_Mask
  10
25.75
  20
2.90
  42
0
  0
SEQEND
  0
POLYLINE
  8
Top_Mask
  6
CONTINUOUS
  70
1
  0
VERTEX
  8
Top_Mask
  10
26.15
  20
5.35
  42
0
  0
VERTEX
  8
Top_Mask
  10
26.15
  20
5.95
  42
0
  0
VERTEX
  8
Top_Mask
  10
26.75
  20
5.95
  42
0
  0
VERTEX
  8
Top_Mask
  10
26.75
  20
5.35
  42
0
  0
VERTEX
  8
Top_Mask
  10
26.15
  20
5.35
  42
0
  0
SEQEND
  0
POLYLINE
  8
Top_Mask
  6
CONTINUOUS
  70
1
  0
VERTEX
  8
Top_Mask
  10
2.10
  20
5.65
  42
0
  0
VERTEX
  8
Top_Mask
  10
2.10
  20
6.15
  42
0
  0
VERTEX
  8
Top_Mask
  10
2.60
  20
6.15
  42
0
  0
VERTEX
  8
Top_Mask
  10
2.60
  20
5.65
  42
0
  0
VERTEX
  8
Top_Mask
  10
2.10
  20
5.65
  42
0
  0
SEQEND
  0
POLYLINE
  8
Top_Mask
  6
CONTINUOUS
  70
1
  0
VERTEX
  8
Top_Mask
  10
6.30
  20
21.40
  42
0
  0
VERTEX
  8
Top_Mask
  10
6.30
  20
21.90
  42
0
  0
VERTEX
  8
Top_Mask
  10
6.80
  20
21.90
  42
0
  0
VERTEX
  8
Top_Mask
  10
6.80
  20
21.40
  42
0
  0
VERTEX
  8
Top_Mask
  10
6.30
  20
21.40
  42
0
  0
SEQEND
  0
POLYLINE
  8
Top_Mask
  6
CONTINUOUS
  70
1
  0
VERTEX
  8
Top_Mask
  10
10.25
  20
21.40
  42
0
  0
VERTEX
  8
Top_Mask
  10
10.25
  20
21.90
  42
0
  0
VERTEX
  8
Top_Mask
  10
10.75
  20
21.90
  42
0
  0
VERTEX
  8
Top_Mask
  10
10.75
  20
21.40
  42
0
  0
VERTEX
  8
Top_Mask
  10
10.25
  20
21.40
  42
0
  0
SEQEND
  0
POLYLINE
  8
Top_Mask
  6
CONTINUOUS
  70
1
  0
VERTEX
  8
Top_Mask
  10
20.35
  20
20.35
  42
0
  0
VERTEX
  8
Top_Mask
  10
20.35
  20
20.85
  42
0
  0
VERTEX
  8
Top_Mask
  10
20.85
  20
20.85
  42
0
  0
VERTEX
  8
Top_Mask
  10
20.85
  20
20.35
  42
0
  0
VERTEX
  8
Top_Mask
  10
20.35
  20
20.35
  42
0
  0
SEQEND
  0
POLYLINE
  8
Top_Mask
  6
CONTINUOUS
  70
1
  0
VERTEX
  8
Top_Mask
  10
9.50
  20
13.75
  42
0
  0
VERTEX
  8
Top_Mask
  10
9.50
  20
14.25
  42
0
  0
VERTEX
  8
Top_Mask
  10
10.10
  20
14.25
  42
0
  0
VERTEX
  8
Top_Mask
  10
10.10
  20
13.75
  42
0
  0
VERTEX
  8
Top_Mask
  10
9.50
  20
13.75
  42
0
  0
SEQEND
  0
POLYLINE
  8
Top_Mask
  6
CONTINUOUS
  70
1
  0
VERTEX
  8
Top_Mask
  10
25.75
  20
13.50
  42
0
  0
VERTEX
  8
Top_Mask
  10
25.75
  20
14.00
  42
0
  0
VERTEX
  8
Top_Mask
  10
27.60
  20
14.00
  42
0
  0
VERTEX
  8
Top_Mask
  10
27.60
  20
13.50
  42
0
  0
VERTEX
  8
Top_Mask
  10
25.75
  20
13.50
  42
0
  0
SEQEND
  0
POLYLINE
  8
Top_Mask
  6
CONTINUOUS
  70
1
  0
VERTEX
  8
Top_Mask
  10
0.00
  20
0.00
  42
0
  0
VERTEX
  8
Top_Mask
  10
0.00
  20
1.00
  42
0
  0
VERTEX
  8
Top_Mask
  10
0.10
  20
1.00
  42
0
  0
VERTEX
  8
Top_Mask
  10
0.10
  20
0.10
  42
0
  0
VERTEX
  8
Top_Mask
  10
1.00
  20
0.10
  42
0
  0
VERTEX
  8
Top_Mask
  10
1.00
  20
0.00
  42
0
  0
VERTEX
  8
Top_Mask
  10
0.00
  20
0.00
  42
0
  0
SEQEND
  0
POLYLINE
  8
Top_Mask
  6
CONTINUOUS
  70
1
  0
VERTEX
  8
Top_Mask
  10
0.00
  20
23.00
  42
0
  0
VERTEX
  8
Top_Mask
  10
0.00
  20
24.00
  42
0
  0
VERTEX
  8
Top_Mask
  10
1.00
  20
24.00
  42
0
  0
VERTEX
  8
Top_Mask
  10
1.00
  20
23.90
  42
0
  0
VERTEX
  8
Top_Mask
  10
0.10
  20
23.90
  42
0
  0
VERTEX
  8
Top_Mask
  10
0.10
  20
23.00
  42
0
  0
VERTEX
  8
Top_Mask
  10
0.00
  20
23.00
  42
0
  0
SEQEND
  0
POLYLINE
  8
Top_Mask
  6
CONTINUOUS
  70
1
  0
VERTEX
  8
Top_Mask
  10
29.90
  20
23.00
  42
0
  0
VERTEX
  8
Top_Mask
  10
29.90
  20
23.90
  42
0
  0
VERTEX
  8
Top_Mask
  10
29.00
  20
23.90
  42
0
  0
VERTEX
  8
Top_Mask
  10
29.00
  20
24.00
  42
0
  0
VERTEX
  8
Top_Mask
  10
30.00
  20
24.00
  42
0
  0
VERTEX
  8
Top_Mask
  10
30.00
  20
23.00
  42
0
  0
VERTEX
  8
Top_Mask
  10
29.90
  20
23.00
  42
0
  0
SEQEND
  0
POLYLINE
  8
Top_Mask
  6
CONTINUOUS
  70
1
  0
VERTEX
  8
Top_Mask
  10
29.00
  20
0.00
  42
0
  0
VERTEX
  8
Top_Mask
  10
29.00
  20
0.10
  42
0
  0
VERTEX
  8
Top_Mask
  10
29.90
  20
0.10
  42
0
  0
VERTEX
  8
Top_Mask
  10
29.90
  20
1.00
  42
0
  0
VERTEX
  8
Top_Mask
  10
30.00
  20
1.00
  42
0
  0
VERTEX
  8
Top_Mask
  10
30.00
  20
0.00
  42
0
  0
VERTEX
  8
Top_Mask
  10
29.00
  20
0.00
  42
0
  0
SEQEND
  0
POLYLINE
  8
Top_Mask
  6
CONTINUOUS
  70
1
  0
VERTEX
  8
Top_Mask
  10
14.65
  20
0.60
  42
0
  0
VERTEX
  8
Top_Mask
  10
14.65
  20
1.00
  42
0
  0
VERTEX
  8
Top_Mask
  10
15.40
  20
1.00
  42
0
  0
VERTEX
  8
Top_Mask
  10
15.40
  20
0.60
  42
0
  0
VERTEX
  8
Top_Mask
  10
15.25
  20
0.60
  42
0
  0
VERTEX
  8
Top_Mask
  10
15.25
  20
0.85
  42
0
  0
VERTEX
  8
Top_Mask
  10
14.80
  20
0.85
  42
0
  0
VERTEX
  8
Top_Mask
  10
14.80
  20
0.60
  42
0
  0
VERTEX
  8
Top_Mask
  10
14.65
  20
0.60
  42
0
  0
SEQEND
  0
POLYLINE
  8
Top_Mask
  6
CONTINUOUS
  70
1
  0
VERTEX
  8
Top_Mask
  10
14.65
  20
0.25
  42
0
  0
VERTEX
  8
Top_Mask
  10
14.65
  20
0.60
  42
0
  0
VERTEX
  8
Top_Mask
  10
14.80
  20
0.60
  42
0
  0
VERTEX
  8
Top_Mask
  10
14.80
  20
0.40
  42
0
  0
VERTEX
  8
Top_Mask
  10
15.25
  20
0.40
  42
0
  0
VERTEX
  8
Top_Mask
  10
15.25
  20
0.60
  42
0
  0
VERTEX
  8
Top_Mask
  10
15.40
  20
0.60
  42
0
  0
VERTEX
  8
Top_Mask
  10
15.40
  20
0.25
  42
0
  0
VERTEX
  8
Top_Mask
  10
14.65
  20
0.25
  42
0
  0
SEQEND
  0
ENDSEC
  0
EOF
